<svg xmlns="http://www.w3.org/2000/svg" version="1.0" preserveAspectRatio="xMidYMid meet" viewBox="352.98 207.75 353.86 624.07">
 <g fill="#0de97d">
  <path d="M486 823.75 c0 -1.40 0.20 -1.75 1 -1.75 1.10 0 1.30 1 0.50 2.55 -0.80 1.50 -1.50 1.15 -1.50 -0.80z"/>
  <path d="M480.45 823.25 c1.05 -2.25 2.05 -2.25 2.05 0 0 1.60 -0.15 1.75 -1.45 1.75 l-1.40 0 0.80 -1.75z"/>
  <path d="M592 818.65 c0 -3.35 0.35 -3.65 3.80 -3.65 2.45 0 3.20 0.15 3.20 0.75 0 0.65 -1 0.95 -4.50 1.40 -0.50 0.10 -0.70 0.55 -0.60 1.50 0.15 1.10 -0.05 1.35 -0.85 1.35 -0.80 0 -1.05 -0.30 -1.05 -1.35z"/>
  <path d="M434.35 819.15 c-0.20 -0.15 -0.35 -1.10 -0.35 -2.05 l0 -1.75 1.25 1.15 1.25 1.15 0 -1.10 c0 -1.90 1.25 -0.90 1.40 1.10 0.15 1.80 0.10 1.85 -1.55 1.85 -0.90 0 -1.85 -0.15 -2 -0.35z"/>
  <path d="M506 732 c0 -0.65 0.35 -1 1 -1 0.65 0 1 0.35 1 1 0 0.65 -0.35 1 -1 1 -0.65 0 -1 -0.35 -1 -1z"/>
  <path d="M421 719.75 c0 -0.40 0.35 -0.75 0.80 -0.75 0.45 0 0.90 -0.45 1.05 -1 0.45 -1.75 1.65 -1.20 1.65 0.75 0 1.65 -0.10 1.75 -1.75 1.75 -1.20 0 -1.75 -0.25 -1.75 -0.75z"/>
  <path d="M436 691 c0 -0.65 0.35 -1 1 -1 0.65 0 1 0.35 1 1 0 0.65 -0.35 1 -1 1 -0.65 0 -1 -0.35 -1 -1z"/>
  <path d="M629.50 599.55 c0 -1.45 0.15 -1.55 1.80 -1.55 1.95 0 1.90 0.45 -0.30 2 l-1.50 1.05 0 -1.50z"/>
  <path d="M638.10 591.95 c0.15 -1.60 0.30 -1.70 2.10 -1.85 1.80 -0.15 1.90 -0.10 1.30 0.65 -0.35 0.45 -1.30 1.25 -2.10 1.85 l-1.45 1 0.15 -1.65z"/>
  <path d="M505 571 c0 -1.05 0.50 -1.20 2.40 -0.70 1.80 0.50 1.35 1.70 -0.65 1.70 -1.40 0 -1.75 -0.20 -1.75 -1z"/>
  <path d="M528.50 526 c0 -0.80 0.35 -1 1.75 -1 2 0 2.45 1.20 0.65 1.70 -1.90 0.50 -2.40 0.35 -2.40 -0.70z"/>
  <path d="M437.50 523.25 c0 -2.15 0.70 -2.25 1.75 -0.25 1 1.90 0.95 2 -0.50 2 -1.10 0 -1.25 -0.20 -1.25 -1.75z"/>
  <path d="M539.50 523.30 c0 -1.15 0.20 -1.30 1.75 -1.30 2.65 0 2.30 0.65 -1.35 2.40 -0.25 0.10 -0.40 -0.40 -0.40 -1.10z"/>
  <path d="M546.50 519.80 c0 -1.10 0.20 -1.30 1.50 -1.30 1.15 0 1.50 -0.20 1.50 -1 0 -0.55 0.35 -1 0.75 -1 0.40 0 0.75 -0.20 0.75 -0.50 0 -0.25 0.80 -0.50 1.80 -0.50 2.20 0 1.95 0.45 -1.80 3 -4.10 2.75 -4.50 2.90 -4.50 1.30z"/>
  <path d="M555 513.60 c0 -0.75 0.25 -1.65 0.60 -2 0.35 -0.35 1.25 -0.60 2 -0.60 1.40 0 1.40 0.05 0.65 1.20 -0.45 0.70 -1.35 1.60 -2.05 2.05 -1.15 0.75 -1.20 0.75 -1.20 -0.65z"/>
  <path d="M686 509.75 c0 -1.40 0.20 -1.75 1 -1.75 1.05 0 1.20 0.50 0.70 2.40 -0.50 1.80 -1.70 1.35 -1.70 -0.65z"/>
  <path d="M687.50 503.25 c0 -1.40 0.20 -1.75 1 -1.75 1.05 0 1.20 0.50 0.70 2.40 -0.50 1.80 -1.70 1.35 -1.70 -0.65z"/>
  <path d="M564 502.50 c0 -2.30 1 -4 2.30 -4 1.05 0 1.15 0.15 0.65 1.35 -0.70 1.90 -2.10 4.15 -2.55 4.15 -0.20 0 -0.40 -0.65 -0.40 -1.50z"/>
  <path d="M688.50 498.25 c0 -1.40 0.20 -1.75 1 -1.75 1.05 0 1.20 0.50 0.70 2.40 -0.50 1.80 -1.70 1.35 -1.70 -0.65z"/>
  <path d="M568 492.75 c0 -0.95 0.20 -1.75 0.40 -1.75 0.25 0 0.75 -2.25 1.10 -5 0.55 -4.35 0.75 -5 1.55 -5 0.55 0 0.95 0.35 0.95 0.90 0 1.75 -2.10 11.05 -2.70 12.05 -0.70 1.10 -1.30 0.50 -1.30 -1.20z"/>
  <path d="M689.50 492.80 c0 -0.65 0.15 -2.20 0.30 -3.50 0.25 -1.85 0.55 -2.30 1.30 -2.30 1 0 1.05 0.65 0.10 5.65 -0.35 1.65 -1.70 1.80 -1.70 0.15z"/>
  <path d="M426 491.25 c0 -2 1.20 -2.45 1.70 -0.60 0.50 1.85 0.35 2.35 -0.70 2.35 -0.80 0 -1 -0.35 -1 -1.75z"/>
  <path d="M690.50 483.75 c0 -1.40 0.20 -1.75 1 -1.75 1.05 0 1.20 0.50 0.70 2.40 -0.50 1.80 -1.70 1.35 -1.70 -0.65z"/>
  <path d="M691 476.25 c0 -1.90 0.15 -2.25 1 -2.25 1.05 0 1.30 1.15 0.70 3.40 -0.55 2.05 -1.70 1.30 -1.70 -1.15z"/>
  <path d="M472.50 473.40 c0 -1.50 0.65 -2.90 1.30 -2.90 0.45 0 0.70 0.60 0.70 1.75 0 1.40 -0.20 1.75 -1 1.75 -0.55 0 -1 -0.30 -1 -0.60z"/>
  <path d="M691 470.75 c0 -1.40 0.20 -1.75 1 -1.75 0.80 0 1 0.35 1 1.75 0 1.40 -0.20 1.75 -1 1.75 -0.80 0 -1 -0.35 -1 -1.75z"/>
  <path d="M569.60 467.20 c-0.60 -3.75 -1.55 -6.55 -1.60 -4.55 0 0.70 -0.50 0.85 -3.30 0.85 -2.80 0 -3.55 -0.20 -4.80 -1.25 -1.50 -1.25 -5.70 -2.75 -7.75 -2.75 -1.65 0 -6.95 -2.80 -9.75 -5.10 -1.85 -1.50 -2.40 -2.35 -2.40 -3.40 0 -0.80 -0.25 -1.50 -0.55 -1.60 -0.45 -0.15 -0.45 -0.45 0 -1.25 0.30 -0.60 0.55 -2.55 0.55 -4.30 0 -2.80 -0.20 -3.55 -1.60 -5.65 -3.25 -4.80 -8.60 -6.10 -12.95 -3.20 -1.25 0.80 -2.55 2.05 -2.95 2.75 -0.95 1.75 -1.50 1.55 -1.50 -0.50 0 -1.05 0.25 -1.75 0.65 -1.75 0.45 0 0.65 -6.45 0.75 -30.15 0.10 -16.55 0.30 -30.50 0.40 -30.95 0.15 -0.50 0.60 -0.90 1.05 -0.90 0.50 0 0.65 -0.25 0.40 -0.85 -0.45 -1.30 -1.25 -5.55 -1.25 -6.95 0 -0.70 0.30 -1.20 0.70 -1.20 0.50 0 0.95 1 1.30 2.90 1.30 6.35 7.40 22.90 12.40 33.65 2.85 6.10 8.90 16.85 14.75 26.20 8.30 13.20 11.35 18.20 13.10 21.55 2.25 4.25 5.60 13.25 6.20 16.90 0.80 4.30 0.70 5.30 -0.35 5.30 -0.75 0 -1.05 -0.65 -1.50 -3.80z"/>
  <path d="M619.30 468.90 c-0.50 -1.90 -0.35 -2.40 0.70 -2.40 0.80 0 1 0.35 1 1.75 0 2 -1.20 2.45 -1.70 0.65z"/>
  <path d="M691 462 c0 -3.05 0.15 -4 0.70 -4 0.90 0 1.30 1.55 1.30 5.15 0 2.50 -0.10 2.85 -1 2.85 -0.90 0 -1 -0.35 -1 -4z"/>
  <path d="M618.80 461.90 c-0.50 -1.90 -0.35 -2.40 0.70 -2.40 0.80 0 1 0.35 1 1.75 0 2 -1.20 2.45 -1.70 0.65z"/>
  <path d="M527.50 454 c0 -0.90 0.35 -1 3.40 -1 2.80 0 3.70 -0.20 5.25 -1.25 l1.85 -1.30 0 1.55 c0 1.40 -0.15 1.50 -1.75 1.50 -1.20 0 -1.75 0.25 -1.75 0.75 0 0.60 -0.70 0.75 -3.50 0.75 -3.15 0 -3.50 -0.10 -3.50 -1z"/>
  <path d="M690.50 451.75 c0 -2.45 1.15 -3.20 1.70 -1.10 0.60 2.20 0.35 3.35 -0.70 3.35 -0.85 0 -1 -0.35 -1 -2.25z"/>
  <path d="M689.80 445.15 c-0.55 -5 -2.55 -14.50 -4.70 -22.15 -2.20 -7.60 -1.35 -6.90 -7.40 -6.20 -2.30 0.25 -3.70 0.10 -5.50 -0.50 -1.30 -0.45 -3.30 -0.80 -4.50 -0.80 -1.15 0 -2.90 -0.35 -3.90 -0.75 -1.20 -0.50 -4.30 -0.90 -9.20 -1.05 -4.70 -0.20 -7.75 -0.55 -8.40 -0.95 -0.60 -0.40 -1.90 -0.85 -2.90 -1 -1 -0.20 -1.95 -0.55 -2.10 -0.80 -0.15 -0.25 -0.85 -0.45 -1.60 -0.45 -0.75 0 -2.70 -0.60 -4.35 -1.25 -1.65 -0.70 -3.35 -1.25 -3.80 -1.25 -0.45 0 -1.35 -0.45 -2 -1.05 -0.65 -0.60 -1.70 -1.25 -2.35 -1.50 -1.55 -0.60 -4.60 -0.55 -4.60 0.05 0 0.30 -0.80 0.50 -1.80 0.50 -2.05 0 -3.60 -1.45 -8.05 -7.75 -1.55 -2.20 -4 -5.55 -5.40 -7.50 -1.45 -1.90 -3.40 -4.80 -4.40 -6.35 -1 -1.60 -3.15 -4.55 -4.70 -6.55 -1.60 -2 -3.70 -4.85 -4.65 -6.35 -0.95 -1.50 -2.65 -3.85 -3.85 -5.15 -1.15 -1.35 -3.15 -3.95 -4.40 -5.75 -3.70 -5.40 -5.70 -8.15 -7.25 -9.95 -0.80 -0.90 -2.65 -3.40 -4.05 -5.50 -1.55 -2.30 -2.70 -3.60 -2.85 -3.15 -0.15 0.35 -0.95 1.40 -1.85 2.30 -1.40 1.40 -2.05 1.65 -5.20 1.95 -2.55 0.25 -3.80 0.20 -4.30 -0.25 -0.45 -0.35 -0.95 -0.50 -1.10 -0.30 -0.20 0.20 -0.05 0.55 0.30 0.75 0.85 0.55 1.40 5.05 0.60 5.05 -0.30 0 -0.55 0.45 -0.55 1 0 0.65 0.35 1 1 1 0.80 0 1 0.35 1 1.75 0 1.55 0.15 1.75 1.25 1.75 0.90 0 1.25 0.25 1.25 1 0 0.55 0.35 1 0.75 1 0.40 0 0.75 0.30 0.75 0.70 0 0.40 0.25 0.80 0.55 0.90 0.30 0.10 0.45 0.95 0.35 1.90 l-0.15 1.75 -2.40 -3.25 c-7 -9.40 -22.05 -32.75 -27.25 -42.25 -1.50 -2.75 -3.20 -5.90 -3.80 -7 -3.20 -5.75 -6.75 -15.60 -7.85 -21.70 -0.55 -3.30 -1.45 -5.25 -1.45 -3.25 0 1.75 -1.20 4.70 -1.90 4.70 -0.60 0 -0.65 -0.45 -0.40 -2.35 0.20 -1.35 0.50 -3.25 0.65 -4.30 0.15 -1 0.45 -2 0.70 -2.15 0.25 -0.15 0.45 -11.85 0.45 -27.10 0 -14.75 0.20 -28.65 0.45 -30.85 0.25 -2.20 0.30 -4.90 0.10 -6 -0.30 -1.90 -0.35 -1.80 -1 2.15 -0.60 3.55 -0.80 4.10 -1.65 4.10 -0.90 0 -1 -0.20 -0.70 -1.60 0.30 -1.50 2.30 -12.95 2.30 -13.25 0 -0.10 0.30 -0.15 0.70 -0.15 0.75 0 1.60 2.80 2.10 7 0.15 1.50 0.65 4.20 1 6 0.40 1.80 0.95 4.25 1.20 5.50 0.80 3.90 3.75 13.05 7.75 24 4.70 12.70 14.70 26.65 25.70 35.65 4.95 4.10 8.15 6.15 16.45 10.55 14 7.45 16.05 8.55 24.10 13.20 12.75 7.35 18.65 11.55 30.10 21.50 13.25 11.55 28.15 29.35 37.25 44.60 9.25 15.50 16.30 33.25 20.65 51.75 1.40 6.10 1.40 5.90 2.25 12 0.95 6.80 0.95 6.75 -0.20 6.75 -0.80 0 -1 -0.50 -1.25 -3.35z"/>
  <path d="M610.75 433 c-1 -1.90 -0.95 -2 0.50 -2 1.10 0 1.25 0.20 1.25 1.75 0 2.15 -0.70 2.25 -1.75 0.25z"/>
  <path d="M604.35 421.55 c-1.10 -1.90 -1.10 -2.05 0.40 -2.05 1.10 0 1.25 0.20 1.25 1.75 0 2.15 -0.50 2.20 -1.65 0.30z"/>
  <path d="M592.60 403.25 l-1.10 -1.75 1.50 0 c1.40 0 1.50 0.15 1.50 1.75 0 2.20 -0.45 2.20 -1.90 0z"/>
  <path d="M368.60 394.15 c1.75 -3.70 2.40 -4.05 2.40 -1.40 0 1.55 -0.15 1.75 -1.30 1.75 -0.70 0 -1.20 -0.15 -1.10 -0.35z"/>
  <path d="M584.40 391.15 c-0.40 -0.50 -1.90 -2.65 -3.30 -4.75 l-2.60 -3.90 1.50 0 c1.35 0 1.50 0.15 1.50 1.50 0 1.15 0.20 1.50 1 1.50 0.80 0 1 0.35 1 1.50 0 1.15 0.20 1.50 1 1.50 0.80 0 1 0.35 1 1.75 0 2 -0.05 2.05 -1.10 0.90z"/>
  <path d="M574.90 377.50 l-1.40 -1.75 1.30 -0.15 c1.65 -0.20 1.80 -0.05 1.60 1.95 l-0.15 1.70 -1.35 -1.75z"/>
  <path d="M571.15 372.15 c-0.80 -1.05 -2.20 -2.95 -3.10 -4.25 l-1.60 -2.40 1.55 0 c1.35 0 1.50 0.15 1.50 1.50 0 1.15 0.20 1.50 1 1.50 0.65 0 1 0.35 1 1 0 0.55 0.35 1 0.75 1 0.50 0 0.75 0.55 0.75 1.75 0 0.95 -0.10 1.75 -0.20 1.75 -0.10 0 -0.85 -0.85 -1.65 -1.85z"/>
  <path d="M520.50 366.40 c0 -1.50 0.65 -2.90 1.30 -2.90 0.45 0 0.70 0.60 0.70 1.75 0 1.40 -0.20 1.75 -1 1.75 -0.55 0 -1 -0.30 -1 -0.60z"/>
  <path d="M388 362 c1.55 -2.20 2 -2.25 2 -0.30 0 1.65 -0.10 1.80 -1.55 1.80 l-1.50 0 1.05 -1.50z"/>
  <path d="M392 357 c1.55 -2.20 2 -2.25 2 -0.30 0 1.65 -0.10 1.80 -1.55 1.80 l-1.50 0 1.05 -1.50z"/>
  <path d="M402.90 344.60 c0.60 -0.80 1.40 -1.75 1.85 -2.10 0.75 -0.60 0.80 -0.50 0.65 1.30 -0.15 1.80 -0.25 1.95 -1.85 2.10 l-1.65 0.15 1 -1.45z"/>
  <path d="M419 329.95 c0.95 -0.85 2.35 -1.95 3.15 -2.50 l1.35 -1 0 1.50 c0 1.30 -0.20 1.55 -1.25 1.55 -0.90 0 -1.25 0.25 -1.25 1 0 0.85 -0.35 1 -1.85 1 l-1.90 -0.05 1.75 -1.50z"/>
  <path d="M462.50 302.55 c0 -0.40 5.50 -3.55 6.20 -3.55 0.15 0 0.30 0.50 0.30 1.15 0 0.85 -0.50 1.40 -1.75 2 -1.90 0.90 -4.75 1.15 -4.75 0.40z"/>
  <path d="M486.25 287.50 c0.15 -0.25 0.95 -0.95 1.75 -1.50 l1.50 -1.05 0 1.50 c0 1.45 -0.15 1.55 -1.80 1.55 -1 0 -1.65 -0.20 -1.45 -0.50z"/>
  <path d="M494.35 279.80 c2.95 -3.75 6.25 -7.80 6.45 -7.80 0.10 0 0.20 0.80 0.20 1.75 0 1.20 -0.25 1.75 -0.75 1.75 -0.40 0 -0.75 0.45 -0.75 1 0 0.80 -0.35 1 -1.50 1 -1.40 0 -1.50 0.15 -1.50 1.75 0 1.60 -0.10 1.75 -1.55 1.75 l-1.55 0 0.95 -1.20z"/>
  <path d="M503.50 267.20 c0 -0.60 1.70 -3.20 2.10 -3.20 0.20 0 0.40 0.80 0.40 1.75 0 1.55 -0.15 1.75 -1.25 1.75 -0.70 0 -1.25 -0.15 -1.25 -0.30z"/>
  <path d="M510.65 253.40 c0.95 -2.30 1.85 -2.40 1.85 -0.20 0 1.60 -0.15 1.80 -1.25 1.80 -1.20 0 -1.25 -0.05 -0.60 -1.60z"/>
  <path d="M514.15 244.75 c1.15 -3.55 2.35 -4.35 2.35 -1.50 0 0.95 -0.20 1.75 -0.50 1.75 -0.25 0 -0.50 0.70 -0.50 1.50 0 1.25 -0.20 1.50 -1.20 1.50 l-1.20 0 1.05 -3.25z"/>
  <path d="M516.50 236.40 c0 -1.50 0.65 -2.90 1.30 -2.90 0.45 0 0.70 0.60 0.70 1.75 0 1.40 -0.20 1.75 -1 1.75 -0.55 0 -1 -0.30 -1 -0.60z"/>
 </g>
 <g fill="#03b459">
  <path d="M470.80 831.15 c-3.45 -1.25 -3.75 -2.45 -0.50 -1.90 1.35 0.25 4.20 0.40 6.35 0.35 2.95 -0.05 3.85 0.05 3.85 0.60 0 1.50 -6.40 2.10 -9.70 0.95z"/>
  <path d="M551.50 831.75 c-0.40 -0.10 -1.60 -0.30 -2.60 -0.50 -1.05 -0.15 -1.90 -0.60 -1.90 -0.95 0 -0.45 1.45 -0.60 5.75 -0.60 4.30 0 5.75 0.15 5.75 0.60 0 0.75 -5.25 1.80 -7 1.45z"/>
  <path d="M391.50 830.55 c0 -0.80 0.30 -1.05 1.30 -1.05 1.65 0 1.50 1.65 -0.20 1.90 -0.85 0.15 -1.10 -0.10 -1.10 -0.85z"/>
  <path d="M418.50 830.55 c0 -0.80 0.30 -1.05 1.30 -1.05 1.65 0 1.50 1.65 -0.20 1.90 -0.85 0.15 -1.10 -0.10 -1.10 -0.85z"/>
  <path d="M436.70 829.15 c-1 -1.35 -2.10 -2.70 -2.35 -3 -0.35 -0.50 -0.10 -0.65 1.10 -0.65 1.30 0 1.55 0.20 1.55 1.25 0 0.90 0.25 1.25 1 1.25 0.55 0 1 0.35 1 0.75 0 0.40 0.35 0.75 0.75 0.75 0.40 0 0.75 0.45 0.75 1 0 1.75 -1.80 1.10 -3.80 -1.35z"/>
  <path d="M512.10 830.40 c0.10 -0.75 0.55 -1.20 1.30 -1.30 1 -0.15 1.15 0 1 1 -0.10 0.75 -0.55 1.20 -1.30 1.30 -1 0.15 -1.15 0 -1 -1z"/>
  <path d="M587.35 831.20 c-1.05 -1.05 -0.25 -1.70 2.15 -1.70 l2.50 0 0 -6.95 c0 -6.75 0.05 -6.95 1.15 -7.25 2.10 -0.55 4.85 -0.35 4.85 0.40 0 0.80 -2.05 1.45 -3.20 1 -0.50 -0.20 -0.80 -0.05 -0.85 0.35 0 0.40 -0.05 3.75 -0.10 7.45 l-0.10 6.75 -3 0.15 c-1.70 0.10 -3.20 0 -3.40 -0.20z"/>
  <path d="M614.50 830.30 c0 -1 0.25 -1.30 1.05 -1.30 0.75 0 1 0.25 0.85 1.10 -0.25 1.70 -1.90 1.85 -1.90 0.20z"/>
  <path d="M644.35 831.15 c-0.90 -0.85 -0.10 -5.15 0.95 -5.15 0.50 0 0.70 0.75 0.70 2.75 0 1.95 -0.20 2.75 -0.65 2.75 -0.40 0 -0.85 -0.15 -1 -0.35z"/>
  <path d="M649 827.05 c0 -4.25 0.05 -4.55 1 -4.55 1 0 1.05 0.25 0.90 4.35 -0.15 3.70 -0.30 4.40 -1 4.55 -0.80 0.15 -0.90 -0.30 -0.90 -4.35z"/>
  <path d="M544.25 829.45 c-1.10 -0.55 -2.45 -1.45 -3 -2 -0.95 -0.95 -0.95 -0.95 0.90 -0.95 1.30 0 1.85 0.20 1.85 0.75 0 0.45 0.45 0.75 1.25 0.75 1 0 1.25 0.25 1.25 1.25 0 0.70 -0.05 1.25 -0.15 1.25 -0.05 0 -1 -0.45 -2.10 -1.05z"/>
  <path d="M560.50 829.30 c0 -0.65 0.35 -1.35 0.80 -1.50 1.10 -0.45 3.70 -0.35 3.70 0.10 0 0.45 -1.60 1.45 -3.30 2.10 -1.05 0.40 -1.20 0.35 -1.20 -0.70z"/>
  <path d="M441 813.20 c0 -15.25 0.05 -16.25 0.90 -16.10 0.80 0.15 0.85 1.40 1 16.30 0.10 15.85 0.10 16.10 -0.90 16.10 -1 0 -1 -0.30 -1 -16.30z"/>
  <path d="M483 827.95 c0 -1.05 0.30 -1.60 0.90 -1.80 1.20 -0.30 2.25 -4 1.85 -6.35 -0.20 -1 -0.55 -1.80 -0.80 -1.80 -0.25 0 -0.45 -0.55 -0.45 -1.25 0 -1 -0.25 -1.25 -1.20 -1.25 -0.65 0 -1.30 -0.15 -1.40 -0.40 -0.20 -0.50 -6.45 -2.60 -7.75 -2.60 -0.85 0 -1.15 -0.30 -1.15 -1.05 0 -0.95 0.20 -1 2.40 -0.65 8.10 1.15 13 5.65 12.50 11.30 -0.25 2.50 -2.05 5.65 -3.90 6.80 -0.90 0.55 -1 0.50 -1 -0.95z"/>
  <path d="M473 827 c0 -0.25 -0.80 -0.50 -1.75 -0.50 -1.20 0 -1.75 -0.25 -1.75 -0.75 0 -0.45 -0.45 -0.75 -1.25 -0.75 -0.80 0 -1.25 -0.30 -1.25 -0.75 0 -0.40 -0.35 -0.75 -0.75 -0.75 -0.40 0 -0.75 0.40 -0.75 0.90 0 1.15 -0.95 2.10 -2.05 2.10 -1.70 0 -1.55 -1.15 0.45 -3.10 l2 -2.05 3 1.90 c5.15 3.15 9.05 3.40 11.30 0.70 1.60 -1.90 1.90 -1.85 1.70 0.45 -0.15 1.60 -0.35 1.85 -1.50 2 -0.80 0.10 -1.40 0.40 -1.40 0.65 0 0.25 -1.35 0.45 -3 0.45 -1.65 0 -3 -0.20 -3 -0.50z"/>
  <path d="M565.50 823.25 c0 -3.30 0.15 -4.25 0.70 -4.25 1.25 0 1.85 5.55 0.80 7.55 -1.05 1.90 -1.50 0.90 -1.50 -3.30z"/>
  <path d="M548.50 826.25 c0 -0.50 -0.55 -0.75 -1.75 -0.75 -1.60 0 -1.75 -0.10 -1.75 -1.50 l0 -1.50 1.90 1.20 c1 0.65 2.60 1.35 3.50 1.55 2.20 0.45 2.15 1.75 -0.15 1.75 -1.20 0 -1.75 -0.25 -1.75 -0.75z"/>
  <path d="M557.50 825.50 c0 -0.25 0.65 -0.80 1.45 -1.25 0.80 -0.40 1.55 -1 1.70 -1.35 0.15 -0.35 0.30 0.20 0.30 1.25 0.05 1.80 0 1.85 -1.70 1.85 -0.95 0 -1.75 -0.20 -1.75 -0.50z"/>
  <path d="M536.80 821.90 c-0.70 -1.45 -1.40 -3.50 -1.60 -4.50 -0.25 -1.65 -0.20 -1.90 0.60 -1.90 1.05 0 2.55 3.60 3.05 7.15 0.35 2.65 -0.55 2.30 -2.05 -0.75z"/>
  <path d="M427.70 818.15 c-6.50 -7.85 -6.10 -7.15 -4.25 -7.15 1.30 0 1.55 0.20 1.55 1.25 0 0.90 0.25 1.25 1 1.25 0.80 0 1 0.35 1 1.50 0 1.25 0.20 1.50 1.25 1.50 1.10 0 1.25 0.20 1.25 1.75 0 1.60 0.10 1.75 1.50 1.75 1.40 0 1.50 0.15 1.50 1.75 0 0.95 -0.10 1.75 -0.20 1.75 -0.05 0 -2.15 -2.40 -4.60 -5.35z"/>
  <path d="M478.65 819.40 c-2.10 -1.30 -2.10 -1.90 0.10 -1.90 1.60 0 1.75 0.10 1.75 1.50 0 0.85 -0.05 1.50 -0.10 1.45 -0.10 0 -0.90 -0.50 -1.75 -1.05z"/>
  <path d="M435 819.05 c0 -0.25 -0.45 -0.55 -1 -0.70 -0.75 -0.20 -1 -0.70 -1 -2.05 0 -1.65 -0.10 -1.80 -1.50 -1.80 -1.70 0 -2.15 -0.70 -1.90 -2.80 0.15 -1.30 0.30 -1.20 3.40 2.45 3.10 3.65 3.25 3.75 3.40 2.35 0.10 -1.10 0.35 -1.35 1.15 -1.15 0.75 0.20 0.95 0.70 0.95 2.20 0 1.90 -0.05 1.95 -1.75 1.95 -0.95 0 -1.75 -0.20 -1.75 -0.45z"/>
  <path d="M560.35 818.55 c-0.20 -0.85 -0.35 -0.90 -3.20 -0.15 -3.60 0.95 -4.65 0.65 -4.65 -1.40 0 -1.15 0.20 -1.50 1 -1.50 0.60 0 1 0.35 1 0.80 0 0.60 0.30 0.75 1.15 0.45 0.60 -0.20 2.30 -0.45 3.75 -0.60 l2.60 -0.25 0 1.80 c0 1.95 -1.20 2.55 -1.65 0.85z"/>
  <path d="M609.50 817.70 c0 -0.45 -0.45 -0.90 -1 -1.05 -1.75 -0.45 -1.20 -1.65 0.75 -1.65 1.65 0 1.75 0.10 1.75 1.75 0 1.20 -0.25 1.75 -0.75 1.75 -0.40 0 -0.75 -0.35 -0.75 -0.80z"/>
  <path d="M540 816 c0 -2.25 1.15 -2.85 1.70 -0.85 0.55 2.05 0.35 2.85 -0.70 2.85 -0.85 0 -1 -0.35 -1 -2z"/>
  <path d="M468.10 815.70 c-1.45 -0.70 -3.15 -2 -3.80 -2.85 -1.80 -2.40 -2.15 -7.85 -0.55 -7.85 0.35 0 0.70 1 0.90 2.65 0.20 2.10 0.60 3 1.80 4.25 0.85 0.85 2 1.70 2.55 1.85 0.55 0.20 1 0.55 1 0.80 0 0.25 0.55 0.45 1.25 0.45 0.90 0 1.25 0.25 1.25 1 0 1.35 -1.15 1.25 -4.40 -0.30z"/>
  <path d="M565 813.95 c0 -1.65 0.15 -2 0.90 -1.85 0.60 0.10 0.90 0.70 1 2.05 0.15 1.60 0 1.85 -0.85 1.85 -0.90 0 -1.05 -0.30 -1.05 -2.05z"/>
  <path d="M535 813.45 c0 -2.05 1.15 -5.45 1.80 -5.45 0.80 0 0.85 0.80 0.40 4.20 -0.25 1.80 -0.55 2.30 -1.25 2.30 -0.65 0 -0.95 -0.35 -0.95 -1.05z"/>
  <path d="M552.50 813.60 c0 -1 1.40 -1.60 3.85 -1.60 2.30 0 2.65 0.15 2.65 1 0 0.90 -0.35 1 -3.25 1 -1.80 0 -3.25 -0.20 -3.25 -0.40z"/>
  <path d="M540 812.30 c0 -2.60 0.60 -4.30 1.55 -4.30 0.70 0 0.95 -0.35 0.95 -1.40 0 -1.60 0.80 -2.60 2.10 -2.60 0.50 0 0.90 -0.30 0.90 -0.65 0 -0.75 2.75 -1.85 4.65 -1.85 2.20 0 1.55 1.25 -1.10 2.20 -3.25 1.15 -6.30 4.45 -7.10 7.50 -0.60 2.45 -1.95 3.20 -1.95 1.10z"/>
  <path d="M592 804.75 c0 -7.40 0.05 -7.75 1 -7.75 0.95 0 1 0.35 1 7 0 5.90 0.10 7 0.75 7 0.40 0 0.75 0.35 0.75 0.75 0 0.50 -0.55 0.75 -1.75 0.75 l-1.75 0 0 -7.75z"/>
  <path d="M467.80 809.20 c-0.40 -1 -0.40 -3.10 0 -4.55 0.25 -0.85 0.70 -1.15 1.80 -1.15 1.40 0 1.45 0.05 0.70 1.10 -0.45 0.60 -0.80 1.60 -0.80 2.15 0 0.55 0.35 1.55 0.80 2.15 0.75 1.05 0.70 1.10 -0.70 1.10 -0.90 0 -1.60 -0.30 -1.80 -0.80z"/>
  <path d="M425.35 809.15 c-0.20 -0.15 -0.35 -0.95 -0.35 -1.75 0 -1.15 -0.20 -1.40 -1.25 -1.40 -1.10 0 -1.25 -0.20 -1.25 -1.85 l0.05 -1.90 2 2.25 c1.05 1.25 2.45 2.85 3 3.65 l1 1.35 -1.45 0 c-0.80 0 -1.60 -0.15 -1.75 -0.35z"/>
  <path d="M414.50 805.15 c0 -4.05 0.40 -5.65 1.30 -5.65 0.55 0 0.70 1 0.70 4.50 0 4.15 -0.05 4.50 -1 4.50 -0.90 0 -1 -0.35 -1 -3.35z"/>
  <path d="M587.10 802.90 c0.15 -4.90 0.25 -5.65 1.05 -5.80 0.75 -0.15 0.85 0.35 0.85 5.60 0 5.50 -0.05 5.80 -1 5.80 -1 0 -1.05 -0.25 -0.90 -5.60z"/>
  <path d="M436.50 803.30 c0 -5.15 0.25 -6.30 1.30 -6.30 0.55 0 0.70 1.15 0.70 5.50 0 5.15 -0.05 5.50 -1 5.50 -0.95 0 -1 -0.35 -1 -4.70z"/>
  <path d="M559.55 805.75 c-0.90 -0.65 -3 -1.55 -4.60 -2.05 -3.30 -1 -3.95 -2.20 -1.20 -2.20 0.95 0 1.75 0.25 1.75 0.50 0 0.30 0.70 0.50 1.50 0.50 1 0 1.50 0.25 1.50 0.75 0 1.10 3.15 1 4.15 -0.15 1.15 -1.25 1.05 -1.60 -0.40 -1.60 -1 0 -1.25 -0.25 -1.25 -1.25 0 -0.70 0.20 -1.25 0.40 -1.25 0.70 0 4.60 3.20 4.60 3.75 0 0.70 -3.60 4.25 -4.25 4.25 -0.30 -0.05 -1.25 -0.60 -2.20 -1.25z"/>
  <path d="M481.40 805.60 c-1.85 -1.10 -1.75 -1.45 0.60 -1.85 1.95 -0.35 2 -0.40 2 -2.30 0 -2.10 0.45 -2.40 1.70 -1.15 0.75 0.70 0.75 0.90 -0.05 2.25 -0.50 0.80 -1.35 2 -1.90 2.70 -0.95 1.20 -1.05 1.20 -2.35 0.35z"/>
  <path d="M644.50 804.20 c0 -0.45 -0.45 -0.90 -1 -1.05 -1.75 -0.45 -1.20 -1.65 0.75 -1.65 1.65 0 1.75 0.10 1.75 1.75 0 1.20 -0.25 1.75 -0.75 1.75 -0.40 0 -0.75 -0.35 -0.75 -0.80z"/>
  <path d="M463 804.25 c0 -0.75 1.55 -3.15 2.85 -4.35 1.45 -1.40 4.50 -2.90 5.90 -2.90 0.40 0 0.75 0.45 0.75 1 0 0.80 -0.35 1 -1.75 1 -1.20 0 -1.75 0.25 -1.75 0.75 0 0.50 -0.50 0.75 -1.50 0.75 -1.25 0 -1.50 0.20 -1.50 1.20 0 2 -0.55 2.80 -1.80 2.80 -0.65 0 -1.20 -0.10 -1.20 -0.25z"/>
  <path d="M477.65 803.75 c-2.15 -0.90 -2.10 -1.75 0.10 -1.75 1.55 0 1.75 0.15 1.75 1.25 0 0.70 -0.05 1.25 -0.10 1.25 -0.10 -0.05 -0.90 -0.35 -1.75 -0.75z"/>
  <path d="M634 800.25 c0 -2.40 0.10 -2.75 1 -2.75 0.90 0 1 0.35 1 2.75 0 2.40 -0.10 2.75 -1 2.75 -0.90 0 -1 -0.35 -1 -2.75z"/>
  <path d="M659.50 802 c0 -0.65 0.35 -1 1 -1 0.65 0 1 0.35 1 1 0 0.65 -0.35 1 -1 1 -0.65 0 -1 -0.35 -1 -1z"/>
  <path d="M418 798.70 c0 -1.95 0.45 -1.90 2 0.30 l1.05 1.50 -1.50 0 c-1.45 0 -1.55 -0.15 -1.55 -1.80z"/>
  <path d="M391.50 797.95 c0 -0.75 0.25 -1 1.10 -0.85 1.70 0.25 1.85 1.90 0.20 1.90 -1 0 -1.30 -0.25 -1.30 -1.05z"/>
  <path d="M477 798 c0 -1.05 0.50 -1.20 2.40 -0.70 1.80 0.50 1.35 1.70 -0.65 1.70 -1.40 0 -1.75 -0.20 -1.75 -1z"/>
  <path d="M546.50 798.50 c0 -0.60 1.65 -1.50 2.70 -1.50 0.45 0 0.80 0.45 0.80 1 0 0.80 -0.35 1 -1.75 1 -0.95 0 -1.75 -0.20 -1.75 -0.50z"/>
  <path d="M555 798 c0 -1.05 0.50 -1.20 2.40 -0.70 1.80 0.50 1.35 1.70 -0.65 1.70 -1.40 0 -1.75 -0.20 -1.75 -1z"/>
  <path d="M659.50 798 c0 -0.65 0.35 -1 1 -1 0.65 0 1 0.35 1 1 0 0.65 -0.35 1 -1 1 -0.65 0 -1 -0.35 -1 -1z"/>
  <path d="M668.40 761.65 c-0.50 -0.10 -0.90 -0.55 -0.90 -0.95 0 -0.50 0.65 -0.70 2.50 -0.70 1.80 0 2.50 0.20 2.50 0.70 0 1 -2.05 1.50 -4.10 0.95z"/>
  <path d="M378.30 760.70 c-1.10 -1.10 -1.05 -1.20 0.95 -1.20 1.40 0 1.75 0.20 1.75 1 0 1.20 -1.60 1.35 -2.70 0.20z"/>
  <path d="M383 760.50 c0 -0.90 0.35 -1 3.25 -1 2.45 0 3.35 -0.20 3.55 -0.75 0.45 -1.10 2.20 -0.95 2.20 0.20 0 1.90 -1.35 2.55 -5.30 2.55 -3.35 0 -3.70 -0.10 -3.70 -1z"/>
  <path d="M467.40 761.15 c-0.50 -0.10 -0.90 -0.55 -0.90 -0.95 0 -0.50 0.65 -0.70 2.25 -0.70 1.60 0 2.25 0.20 2.25 0.70 0 0.55 -1.65 1.40 -2.50 1.25 -0.15 -0.05 -0.65 -0.15 -1.10 -0.30z"/>
  <path d="M492.90 761.15 c-0.50 -0.10 -0.90 -0.55 -0.90 -0.95 0 -0.60 1.70 -0.70 10.25 -0.70 5.65 0 10.25 0.10 10.25 0.20 0 0.10 -0.15 0.55 -0.30 1 -0.25 0.70 -1.55 0.80 -9.40 0.75 -4.95 -0.05 -9.45 -0.15 -9.90 -0.30z"/>
  <path d="M549.50 760.75 c0 -0.95 1.80 -2.75 2.75 -2.75 1 0 0.95 1.70 -0.05 2.70 -1 1 -2.70 1.05 -2.70 0.05z"/>
  <path d="M596.90 761.15 c-1.70 -0.45 -2.25 -5.15 -0.60 -5.15 0.45 0 0.70 0.55 0.70 1.45 0 0.85 0.30 1.55 0.80 1.75 1.35 0.50 10.20 0.35 10.20 -0.20 0 -0.25 0.45 -0.50 1 -0.50 1.30 0 1.35 1.80 0.05 2.50 -0.95 0.50 -10.40 0.60 -12.15 0.15z"/>
  <path d="M673 760.55 c0 -0.65 0.30 -1.05 0.90 -1.05 0.45 0 2.05 -0.15 3.50 -0.30 2.15 -0.30 2.60 -0.20 2.60 0.45 0 0.80 -0.80 1.05 -4.60 1.60 -2.20 0.35 -2.40 0.30 -2.40 -0.70z"/>
  <path d="M423.60 760.40 c-0.95 -0.95 -0.75 -2.40 0.40 -2.40 0.80 0 1 0.35 1 1.50 0 1.60 -0.45 1.85 -1.40 0.90z"/>
  <path d="M436 757.75 c0 -2.90 0.10 -3.25 1 -3.25 0.85 0 1 0.35 1 2.30 0 2.35 -0.65 4.20 -1.50 4.20 -0.30 0 -0.50 -1.45 -0.50 -3.25z"/>
  <path d="M464.10 760.40 c-0.95 -0.95 -0.75 -2.40 0.40 -2.40 0.80 0 1 0.35 1 1.50 0 1.60 -0.45 1.85 -1.40 0.90z"/>
  <path d="M660.40 760.65 c-1.65 -0.40 -1 -1.65 0.85 -1.65 1.40 0 1.75 0.20 1.75 1 0 1 -0.70 1.15 -2.60 0.65z"/>
  <path d="M685 757.30 c0 -0.95 0.45 -1.40 2.25 -2.15 1.25 -0.50 2.25 -1.05 2.25 -1.25 0 -0.25 0.45 -0.40 1 -0.40 0.55 0 1 -0.35 1 -0.75 0 -0.55 0.55 -0.75 1.80 -0.75 1.50 0 1.70 0.10 1.25 0.70 -0.95 1.10 -5.60 4.20 -7.65 5.05 -1.90 0.75 -1.90 0.75 -1.90 -0.45z"/>
  <path d="M648.65 754.75 l-1.40 -1.20 1.90 -0.05 c1.65 0 1.85 0.15 1.85 1.25 0 1.55 -0.55 1.60 -2.35 0z"/>
  <path d="M595.25 752.40 c-0.15 -0.90 -0.25 -9.15 -0.15 -18.30 0.10 -9.10 0 -16.60 -0.20 -16.60 -0.20 0 -1.25 1.35 -2.40 2.95 -2.55 3.80 -3 4.05 -3 1.85 0 -1 0.25 -1.80 0.50 -1.80 0.30 0 0.50 -0.35 0.50 -0.75 0 -0.40 0.25 -0.75 0.50 -0.75 0.30 0 0.50 -0.35 0.50 -0.75 0 -0.40 0.35 -0.75 0.75 -0.75 0.40 0 0.75 -0.45 0.75 -1 0 -0.85 0.35 -1 2 -1 l2 0 0 19.25 c0 16.50 -0.10 19.25 -0.75 19.25 -0.40 0 -0.85 -0.65 -1 -1.60z"/>
  <path d="M641.15 747.55 c-1.45 -1.70 -2.65 -3.35 -2.65 -3.60 0 -0.25 0.55 -0.45 1.25 -0.45 1.05 0 1.25 0.25 1.25 1.50 0 1.25 0.20 1.50 1.25 1.50 1.45 0 1.90 0.80 1.65 2.80 -0.15 1.35 -0.25 1.30 -2.75 -1.75z"/>
  <path d="M697.50 747.80 c0 -1.65 0.10 -1.80 1.55 -1.80 l1.50 0 -1.05 1.50 c-1.55 2.20 -2 2.25 -2 0.30z"/>
  <path d="M478.15 748.65 c-0.95 -0.35 -0.85 -3.65 0.10 -3.65 0.40 0 0.75 0.35 0.75 0.80 0 0.45 0.70 1.05 1.50 1.35 2.05 0.75 1.95 1.85 -0.10 1.80 -0.90 0 -1.95 -0.15 -2.25 -0.30z"/>
  <path d="M662.65 747.90 c-1.25 -0.40 -1.65 -0.85 -1.65 -1.70 l0 -1.10 3.25 1.05 c3.50 1.15 4.35 2.40 1.65 2.30 -0.90 -0.05 -2.40 -0.30 -3.25 -0.55z"/>
  <path d="M672 747.80 c0 -0.40 0.95 -0.90 2.20 -1.25 3 -0.75 3.30 -0.70 3.30 0.40 0 0.65 -0.50 1 -1.55 1.25 -2.55 0.50 -3.95 0.35 -3.95 -0.40z"/>
  <path d="M678 746 c0 -0.40 2.55 -2 3.25 -2 0.15 0 0.25 0.55 0.25 1.25 0 1.10 -0.20 1.25 -1.75 1.25 -0.95 0 -1.75 -0.20 -1.75 -0.50z"/>
  <path d="M700.50 743.50 c0 -1.45 1.90 -6.10 2.65 -6.40 0.20 -0.10 0.35 -0.60 0.35 -1.10 0 -0.55 0.35 -2.25 0.75 -3.85 0.40 -1.55 0.75 -4.55 0.75 -6.65 0 -2.10 -0.35 -5.10 -0.75 -6.65 -0.40 -1.60 -0.75 -3.35 -0.75 -3.85 0 -0.55 -0.20 -1 -0.50 -1 -0.25 0 -0.50 -0.80 -0.50 -1.75 0 -1.20 -0.25 -1.75 -0.75 -1.75 -0.45 0 -0.75 -0.45 -0.75 -1.25 0 -0.80 -0.30 -1.25 -0.75 -1.25 -0.40 0 -0.75 -0.35 -0.75 -0.75 0 -0.40 -0.20 -0.75 -0.50 -0.75 -0.25 0 -0.50 -0.35 -0.50 -0.75 0 -0.40 -0.20 -0.75 -0.50 -0.75 -0.25 0 -0.50 -0.80 -0.50 -1.80 0 -2.30 0.55 -1.90 3.25 2.25 4.70 7.40 6.85 15.95 5.85 23.70 -0.60 4.90 -2.30 10.60 -4.15 13.85 -1.35 2.40 -1.95 2.55 -1.95 0.50z"/>
  <path d="M655.50 742.95 l0 -1.50 1.50 1.05 c2.20 1.55 2.25 2 0.30 2 -1.65 0 -1.80 -0.10 -1.80 -1.55z"/>
  <path d="M436 736.25 c0 -7.40 0.05 -7.75 1 -7.75 0.95 0 1 0.35 1 7.75 0 7.40 -0.05 7.75 -1 7.75 -0.95 0 -1 -0.35 -1 -7.75z"/>
  <path d="M568.95 738.15 c-1.45 -1.90 -2.85 -3.70 -3.10 -4 -0.35 -0.50 -0.10 -0.65 1.10 -0.65 1.20 0 1.55 0.20 1.55 1 0 0.55 0.35 1 0.75 1 0.45 0 0.75 0.45 0.75 1.25 0 0.90 0.25 1.25 1 1.25 0.80 0 1 0.35 1 1.75 0 0.95 -0.10 1.75 -0.20 1.75 -0.10 0 -1.40 -1.50 -2.85 -3.35z"/>
  <path d="M635.70 738.70 c-0.40 -0.95 -0.85 -2.40 -1.05 -3.25 -0.25 -1.25 -0.10 -1.45 0.80 -1.45 0.85 0 1.05 0.30 1.05 1.50 0 0.85 0.25 1.50 0.50 1.50 0.30 0 0.50 0.80 0.50 1.75 0 2.25 -0.85 2.25 -1.80 -0.05z"/>
  <path d="M687.10 738.25 c1.45 -2.20 1.90 -2.20 1.90 0 0 1.60 -0.10 1.75 -1.50 1.75 l-1.50 0 1.10 -1.75z"/>
  <path d="M577 737.90 c0 -1.80 0.10 -1.90 1.50 -1.90 1.40 0 1.50 -0.15 1.50 -1.75 0 -1.60 0.10 -1.75 1.55 -1.75 l1.50 0 -1 1.40 c-0.55 0.75 -1.95 2.35 -3 3.60 l-2 2.25 -0.05 -1.85z"/>
  <path d="M650.50 738.25 c0 -0.75 -0.30 -1.25 -0.70 -1.25 -0.85 0 -1.30 -1.10 -1.30 -3.05 0 -2.05 0.80 -1.80 2.05 0.70 0.60 1.15 1.50 2.70 2.05 3.50 l0.95 1.35 -1.50 0 c-1.30 0 -1.55 -0.20 -1.55 -1.25z"/>
  <path d="M390.50 733.25 c0 -1.65 0.10 -1.75 1.75 -1.75 1.95 0 2.50 1.20 0.75 1.65 -0.55 0.15 -1 0.60 -1 1.05 0 0.45 -0.35 0.80 -0.75 0.80 -0.50 0 -0.75 -0.55 -0.75 -1.75z"/>
  <path d="M562.90 730.40 c-0.95 -1.20 -3.35 -4.45 -5.35 -7.25 -2 -2.85 -3.85 -5.25 -4.10 -5.45 -0.25 -0.15 -0.45 0.55 -0.45 1.50 0 1.50 -0.20 1.80 -1.05 1.80 -0.90 0 -1 -0.25 -0.85 -2.60 l0.15 -2.65 2 0 c1.95 0 2 0.05 2.15 1.90 0.15 1.60 0.35 1.85 1.40 1.85 1.05 0 1.20 0.25 1.20 1.75 0 1.55 0.15 1.75 1.25 1.75 0.90 0 1.25 0.25 1.25 1 0 0.55 0.35 1 0.75 1 0.40 0 0.75 0.35 0.75 0.75 0 0.40 0.25 0.75 0.50 0.75 0.30 0 0.50 0.55 0.50 1.25 0 0.90 0.25 1.25 1 1.25 0.80 0 1 0.35 1 1.75 0 0.95 -0.10 1.75 -0.20 1.75 -0.10 0 -0.95 -0.95 -1.90 -2.10z"/>
  <path d="M506 726.75 c0 -4.35 -0.15 -5.25 -0.75 -5.25 -0.40 0 -0.75 -0.45 -0.75 -1.05 0 -0.85 0.25 -1 1.65 -0.85 l1.60 0.15 0.15 6.15 c0.10 5.85 0.10 6.10 -0.90 6.10 -0.95 0 -1 -0.30 -1 -5.25z"/>
  <path d="M647 729 c0 -2.25 1.15 -2.85 1.70 -0.85 0.55 2.05 0.35 2.85 -0.70 2.85 -0.85 0 -1 -0.35 -1 -2z"/>
  <path d="M691.25 728.90 c0.60 -4.20 0.85 -4.90 1.55 -4.90 0.80 0 0.85 1.10 0.40 4.70 -0.25 1.85 -0.55 2.30 -1.30 2.30 -0.90 0 -0.95 -0.25 -0.65 -2.10z"/>
  <path d="M633.30 728.90 c-0.55 -2.10 -0.35 -2.90 0.70 -2.90 0.85 0 1 0.35 1 2 0 2.25 -1.15 2.85 -1.70 0.90z"/>
  <path d="M586.50 726.30 c0 -1.65 0.10 -1.80 1.55 -1.80 l1.50 0 -1.05 1.50 c-1.55 2.20 -2 2.25 -2 0.30z"/>
  <path d="M633 724.15 c0 -1.70 0.60 -3.15 1.30 -3.15 0.50 0 0.70 0.65 0.70 2 0 1.65 -0.15 2 -1 2 -0.60 0 -1 -0.35 -1 -0.85z"/>
  <path d="M691.80 722.40 c-0.50 -1.90 -0.35 -2.40 0.70 -2.40 0.80 0 1 0.35 1 1.75 0 2 -1.20 2.45 -1.70 0.65z"/>
  <path d="M647 720.25 c0 -1.40 0.20 -1.75 1 -1.75 1.05 0 1.20 0.50 0.70 2.40 -0.50 1.80 -1.70 1.35 -1.70 -0.65z"/>
  <path d="M478.55 719.15 c0.05 -1.05 0.15 -1.50 0.30 -1 0.15 0.65 0.75 0.85 2.80 0.85 3.30 0 4.85 0.45 4.85 1.30 0 0.55 -0.95 0.70 -4 0.70 l-4 0 0.05 -1.85z"/>
  <path d="M390.50 718.75 c0 -1.95 1.20 -2.50 1.65 -0.75 0.15 0.55 0.60 1 1.05 1 0.45 0 0.80 0.35 0.80 0.75 0 0.50 -0.55 0.75 -1.75 0.75 -1.65 0 -1.75 -0.10 -1.75 -1.75z"/>
  <path d="M421.50 719.50 c0 -0.25 0.35 -0.50 0.75 -0.50 0.65 0 0.75 -1.60 0.80 -11.35 0.10 -17.55 0.05 -17.35 1.10 -17.55 0.80 -0.15 0.85 0.80 0.85 14.85 l0 15.05 -1.75 0 c-0.95 0 -1.75 -0.20 -1.75 -0.50z"/>
  <path d="M570.50 719 c0 -0.55 -0.35 -1 -0.75 -1 -0.40 0 -0.75 -0.30 -0.75 -0.70 0 -0.40 -0.35 -0.80 -0.75 -1 -0.40 -0.15 -0.75 -0.75 -0.75 -1.30 0 -0.55 -0.35 -1 -0.75 -1 -0.40 0 -0.75 -0.45 -0.75 -1 0 -0.55 -0.35 -1 -0.75 -1 -0.55 0 -0.75 -0.55 -0.75 -1.80 0 -0.95 0.20 -1.65 0.45 -1.50 0.25 0.20 2.20 2.60 4.30 5.45 2.15 2.80 4.05 5.05 4.30 5 0.25 -0.10 0.45 0.10 0.45 0.35 0 0.30 -0.80 0.50 -1.75 0.50 -1.40 0 -1.75 -0.20 -1.75 -1z"/>
  <path d="M634.50 716.40 c0 -1.50 0.65 -2.90 1.30 -2.90 0.45 0 0.70 0.60 0.70 1.75 0 1.40 -0.20 1.75 -1 1.75 -0.55 0 -1 -0.30 -1 -0.60z"/>
  <path d="M579 713 c1.55 -2.20 2 -2.25 2 -0.30 0 1.65 -0.10 1.80 -1.55 1.80 l-1.50 0 1.05 -1.50z"/>
  <path d="M687.90 712.50 l-1.40 -1.75 1.30 -0.15 c1.65 -0.20 1.80 -0.05 1.60 1.95 l-0.15 1.70 -1.35 -1.75z"/>
  <path d="M636.05 711.65 c0.85 -2.30 3.10 -6.15 3.55 -6.15 0.45 0 0.55 2.55 0.10 3.70 -0.15 0.45 -0.60 0.80 -1 0.80 -0.45 0 -0.70 0.55 -0.70 1.50 0 1.25 -0.20 1.50 -1.25 1.50 -1.15 0 -1.20 -0.10 -0.70 -1.35z"/>
  <path d="M651.60 711.25 c0.15 -1.75 0.30 -2 1.55 -2.15 1.05 -0.15 1.35 -0.45 1.35 -1.40 0 -1.05 0.20 -1.20 1.90 -1.20 l1.85 0.05 -1.60 1.35 c-0.90 0.80 -2.40 2.30 -3.40 3.35 l-1.75 2 0.10 -2z"/>
  <path d="M682.65 707.85 c-1.70 -1.15 -3.10 -2.25 -3.15 -2.45 0 -0.25 0.80 -0.40 1.75 -0.40 1.40 0 1.75 0.20 1.75 1 0 0.80 0.35 1 1.50 1 1.35 0 1.50 0.15 1.50 1.50 0 0.85 -0.05 1.50 -0.10 1.45 -0.10 0 -1.55 -0.95 -3.25 -2.10z"/>
  <path d="M561.50 706.75 c0 -0.90 -0.25 -1.25 -1 -1.25 -0.65 0 -1 -0.35 -1 -1 0 -0.55 -0.35 -1 -0.75 -1 -0.40 0 -0.75 -0.45 -0.75 -1 0 -0.55 -0.35 -1 -0.75 -1 -0.40 0 -0.75 -0.45 -0.75 -1 0 -0.55 -0.35 -1 -0.75 -1 -0.40 0 -0.75 -0.45 -0.75 -1 0 -0.55 -0.35 -1 -0.75 -1 -0.40 0 -0.75 -0.45 -0.75 -1 0 -0.55 -0.35 -1 -0.75 -1 -0.45 0 -0.75 -0.45 -0.75 -1.25 0 -0.90 -0.25 -1.25 -1 -1.25 -0.80 0 -1 -0.35 -1 -1.50 0 -0.80 0.20 -1.50 0.45 -1.50 0.35 0 8.90 10.85 13.45 17.10 0.60 0.80 0.50 0.90 -0.85 0.90 -1.30 0 -1.55 -0.20 -1.55 -1.25z"/>
  <path d="M585.10 705.60 c1.40 -1.95 8.05 -10.10 8.20 -10.10 0.10 0 0.20 0.80 0.20 1.75 0 1.20 -0.25 1.75 -0.75 1.75 -0.40 0 -0.75 0.45 -0.75 1 0 0.75 -0.35 1 -1.25 1 -1.05 0 -1.25 0.25 -1.25 1.50 0 1.15 -0.20 1.50 -1 1.50 -0.75 0 -1 0.35 -1 1.25 0 1.05 -0.25 1.25 -1.55 1.25 -1.35 0 -1.45 -0.10 -0.85 -0.90z"/>
  <path d="M661.50 704.25 c0 -1.10 0.20 -1.25 1.80 -1.25 2.20 0 2.10 0.90 -0.20 1.85 -1.55 0.65 -1.60 0.60 -1.60 -0.60z"/>
  <path d="M510 703 c0 -0.65 0.35 -1 1 -1 0.65 0 1 0.35 1 1 0 0.65 -0.35 1 -1 1 -0.65 0 -1 -0.35 -1 -1z"/>
  <path d="M644.25 699.50 c0.15 -0.25 0.95 -0.95 1.75 -1.50 l1.50 -1.05 0 1.50 c0 1.45 -0.15 1.55 -1.80 1.55 -1 0 -1.65 -0.20 -1.45 -0.50z"/>
  <path d="M463.50 696 c0 -1.65 0.15 -2 1 -2 0.85 0 1 0.35 1 2 0 1.65 -0.15 2 -1 2 -0.85 0 -1 -0.35 -1 -2z"/>
  <path d="M690 696.75 c0 -0.45 -0.45 -0.75 -1.25 -0.75 -1 0 -1.25 -0.25 -1.25 -1.25 0 -0.70 0.15 -1.25 0.30 -1.25 0.55 0 4.60 2.55 5.20 3.25 0.55 0.65 0.35 0.75 -1.20 0.75 -1.25 0 -1.80 -0.20 -1.80 -0.75z"/>
  <path d="M648.50 696.25 c0.65 -0.75 5.35 -3.50 7.30 -4.25 1.05 -0.40 1.20 -0.35 1.20 0.70 0 1.30 -1.70 2.30 -4 2.30 -1.15 0 -1.50 0.25 -1.50 1 0 0.80 -0.35 1 -1.80 1 -1.55 0 -1.75 -0.10 -1.20 -0.75z"/>
  <path d="M595.50 692.50 c1.55 -2.20 2 -2.25 2 -0.30 0 1.65 -0.10 1.80 -1.55 1.80 l-1.50 0 1.05 -1.50z"/>
  <path d="M680.30 692.45 c-1.30 -0.55 -4.05 -1.10 -6.10 -1.30 -3.15 -0.25 -3.70 -0.45 -3.70 -1.20 0 -1.15 0.80 -1.20 6.55 -0.25 4.50 0.75 8.95 2.35 8.95 3.25 0 0.85 -3 0.55 -5.70 -0.50z"/>
  <path d="M463.50 692.30 c0 -1.25 0.60 -2.30 1.30 -2.30 0.45 0 0.70 0.55 0.70 1.50 0 1.15 -0.20 1.50 -1 1.50 -0.55 0 -1 -0.30 -1 -0.70z"/>
  <path d="M377.60 691.40 c0.25 -1.70 1.90 -1.85 1.90 -0.20 0 1 -0.25 1.30 -1.05 1.30 -0.75 0 -1 -0.25 -0.85 -1.10z"/>
  <path d="M657.50 691.85 c0 -0.60 3 -1.85 4.45 -1.85 1.05 0 0.55 1.90 -0.55 2.20 -2 0.50 -3.90 0.35 -3.90 -0.35z"/>
  <path d="M390 691 c0 -0.65 0.35 -1 1 -1 0.65 0 1 0.35 1 1 0 0.65 -0.35 1 -1 1 -0.65 0 -1 -0.35 -1 -1z"/>
  <path d="M663.50 690.30 c0 -0.70 1.45 -1.30 3.40 -1.30 0.75 0 1.10 0.30 1.10 1 0 0.85 -0.35 1 -2.25 1 -1.60 0 -2.25 -0.20 -2.25 -0.70z"/>
  <path d="M515.40 638.65 c-0.50 -0.10 -0.90 -0.55 -0.90 -0.95 0 -0.50 0.65 -0.70 2.25 -0.70 1.90 0 2.25 0.15 2.25 1 0 0.75 -0.30 1 -1.35 0.95 -0.80 -0.05 -1.80 -0.15 -2.25 -0.30z"/>
  <path d="M529.50 638 c0 -0.90 0.35 -1 2.75 -1 2 0 2.75 0.20 2.75 0.70 0 0.80 -1.50 1.30 -3.85 1.30 -1.30 0 -1.65 -0.20 -1.65 -1z"/>
  <path d="M508.40 638.15 c-1.80 -0.45 -1 -1.65 1.10 -1.65 1.65 0 2 0.15 2 1 0 1 -1 1.20 -3.10 0.65z"/>
  <path d="M536.50 637.50 c0 -0.85 0.35 -1 2.25 -1 2.45 0 3.20 1.15 1.15 1.70 -2.25 0.60 -3.40 0.35 -3.40 -0.70z"/>
  <path d="M498 636.95 c-8.40 -1.30 -13.05 -2.25 -20.50 -4.25 -7.05 -1.90 -8.50 -2.45 -8.50 -3.20 0 -0.90 2.60 -0.55 9 1.25 7.55 2.15 16.45 4 23.40 4.80 4.35 0.55 5.10 0.80 5.10 1.55 0 1.10 -0.35 1.10 -8.50 -0.15z"/>
  <path d="M542 637.10 c0 -0.70 1.10 -1 7.65 -2 8.90 -1.30 8.85 -1.30 8.85 -0.40 0 0.80 -0.25 0.85 -8.90 2.30 -7.50 1.20 -7.60 1.20 -7.60 0.10z"/>
  <path d="M559 634.10 c0 -0.70 0.65 -1.05 2.55 -1.50 3.35 -0.80 4.95 -0.75 4.95 0.10 0 0.40 -1.20 1 -3.25 1.50 -4.05 1 -4.25 1 -4.25 -0.10z"/>
  <path d="M571.50 630.70 c0 -1.05 0.25 -1.20 1.75 -1.20 1.10 0 1.75 0.25 1.75 0.65 0 0.40 -0.80 0.90 -1.75 1.20 -1.65 0.55 -1.75 0.50 -1.75 -0.65z"/>
  <path d="M463.15 628 c-2.80 -1.05 -5.35 -2.05 -5.65 -2.25 -1.05 -0.65 -0.45 -1.25 1.25 -1.25 0.95 0 1.75 0.25 1.75 0.50 0 0.30 0.55 0.50 1.25 0.50 0.70 0 1.25 0.25 1.25 0.50 0 0.30 0.55 0.50 1.25 0.50 0.70 0 1.25 0.25 1.25 0.50 0 0.30 0.70 0.50 1.50 0.50 1.25 0 1.50 0.20 1.50 1.25 0 0.70 -0.05 1.25 -0.10 1.25 -0.10 0 -2.45 -0.90 -5.25 -2z"/>
  <path d="M577.50 628.80 c0 -0.90 0.45 -1.25 1.95 -1.70 5.05 -1.55 6.30 0.15 1.30 1.75 l-3.25 1.05 0 -1.10z"/>
  <path d="M584.50 626.30 c0 -1.30 0.80 -1.80 3.05 -1.80 0.95 0 1.45 -0.25 1.45 -0.75 0 -0.40 0.90 -0.95 2.15 -1.35 1.15 -0.30 2.20 -0.75 2.35 -0.95 0.60 -0.80 4.60 -2.45 6 -2.45 1.15 0 1.50 -0.20 1.50 -0.95 0 -0.65 0.55 -1.20 1.75 -1.60 0.95 -0.35 1.75 -0.80 1.75 -1 0 -0.20 1 -0.75 2.25 -1.30 1.25 -0.50 2.25 -1.05 2.25 -1.25 0 -0.25 0.55 -0.40 1.25 -0.40 0.80 0 1.25 -0.30 1.25 -0.75 0 -0.40 0.35 -0.75 0.75 -0.75 0.40 0 0.75 -0.20 0.75 -0.50 0 -0.25 0.55 -0.50 1.25 -0.50 0.80 0 1.25 -0.30 1.25 -0.75 0 -0.40 0.35 -0.75 0.75 -0.75 0.40 0 0.75 -0.20 0.75 -0.50 0 -0.25 0.35 -0.50 0.75 -0.50 0.40 0 0.75 -0.20 0.75 -0.50 0 -0.25 0.35 -0.50 0.75 -0.50 0.40 0 0.75 -0.20 0.75 -0.50 0 -0.25 0.45 -0.50 1 -0.50 0.55 0 1 -0.35 1 -0.75 0 -0.40 0.40 -0.75 0.95 -0.75 0.50 0 1.05 -0.45 1.20 -1 0.15 -0.65 0.70 -1 1.50 -1 0.95 0 1.30 -0.30 1.45 -1.10 0.10 -0.80 0.55 -1.20 1.50 -1.30 0.95 -0.10 1.40 -0.50 1.50 -1.25 0.10 -0.80 0.55 -1.15 1.55 -1.25 0.90 -0.10 1.35 -0.45 1.35 -1.05 0 -1.35 1.25 -2.15 3.10 -1.95 1.65 0.15 1.60 0.20 -4.35 5.15 -8.40 7.05 -9.25 7.70 -16.25 12.10 -9.20 5.80 -18.10 10.65 -25.60 13.85 -1.05 0.45 -2.70 1.15 -3.65 1.55 -1.70 0.75 -1.75 0.75 -1.75 -0.45z"/>
  <path d="M449.15 622 c-3.55 -1.65 -4 -2.50 -1.40 -2.50 0.95 0 1.75 0.20 1.75 0.45 0 0.25 0.70 0.55 1.50 0.75 1.20 0.20 1.50 0.55 1.50 1.55 0 0.70 -0.05 1.25 -0.10 1.25 -0.10 0 -1.55 -0.65 -3.25 -1.50z"/>
  <path d="M436.40 615.35 c-2.45 -1.40 -4.40 -2.75 -4.40 -2.95 0 -0.20 0.80 -0.40 1.75 -0.40 1.20 0 1.75 0.25 1.75 0.75 0 0.45 0.45 0.75 1.25 0.75 0.90 0 1.25 0.25 1.25 1 0 0.80 0.35 1 1.75 1 1.55 0 1.75 0.15 1.75 1.25 0 0.70 -0.15 1.25 -0.35 1.25 -0.25 -0.05 -2.35 -1.20 -4.75 -2.65z"/>
  <path d="M427.65 609.75 l-1.40 -1.20 1.90 -0.05 c1.65 0 1.85 0.15 1.85 1.25 0 1.55 -0.55 1.60 -2.35 0z"/>
  <path d="M419.50 604.05 c-2.90 -2.20 -6.05 -4.65 -7 -5.50 l-1.75 -1.50 1.90 -0.05 c1.50 0 1.85 0.15 1.85 1 0 0.75 0.35 1 1.25 1 0.90 0 1.25 0.25 1.25 1 0 0.75 0.35 1 1.25 1 0.80 0 1.25 0.30 1.25 0.75 0 0.40 0.45 0.75 1 0.75 0.75 0 1 0.35 1 1.25 0 1.10 0.20 1.25 1.75 1.25 1.60 0 1.75 0.10 1.75 1.50 0 0.85 -0.05 1.50 -0.10 1.50 -0.10 0 -2.50 -1.80 -5.40 -3.95z"/>
  <path d="M407.25 593.85 l-2.50 -2.30 1.65 -0.05 c2.15 0 3.75 1.45 3.50 3.25 l-0.15 1.40 -2.50 -2.30z"/>
  <path d="M639 591.15 c0 -2.05 3.35 -5.30 5.20 -5.05 l1.35 0.15 -1.80 2.10 c-1 1.15 -2.45 2.60 -3.30 3.15 l-1.45 1.05 0 -1.40z"/>
  <path d="M401.05 587.75 l-2.15 -2.50 1.35 -0.15 c1.85 -0.25 3.35 1.45 3.15 3.50 l-0.15 1.60 -2.20 -2.45z"/>
  <path d="M646.50 583.40 c0 -1.70 1.20 -3.40 2.40 -3.40 0.35 0 0.60 -0.45 0.60 -1.05 0 -0.60 0.40 -1.15 1 -1.30 0.55 -0.15 1 -0.70 1 -1.25 0 -0.55 0.45 -1.10 1 -1.25 0.55 -0.15 1 -0.70 1 -1.20 0 -0.55 0.25 -0.95 0.50 -0.95 0.30 0 0.50 -0.35 0.50 -0.80 0 -0.45 0.45 -0.90 1 -1.05 0.55 -0.15 1 -0.70 1 -1.25 0 -0.55 0.45 -1.10 1 -1.25 0.55 -0.15 1 -0.70 1 -1.20 0 -0.55 0.35 -0.95 0.75 -0.95 0.40 0 0.75 -0.45 0.75 -1 0 -0.55 0.35 -1 0.75 -1 0.40 0 0.75 -0.45 0.75 -1 0 -0.55 0.25 -1 0.50 -1 0.30 0 0.50 -0.35 0.50 -0.75 0 -0.45 0.45 -0.75 1.25 -0.75 0.70 0 1.25 0.25 1.25 0.50 0 0.90 -15.75 21.35 -17.70 22.95 -0.70 0.60 -0.80 0.50 -0.80 -1.05z"/>
  <path d="M395.20 581.15 c-3.65 -4.45 -3.50 -4.15 -1.75 -4.15 1.40 0 1.55 0.15 1.55 1.50 0 1.25 0.20 1.50 1.25 1.50 1.10 0 1.25 0.20 1.25 1.75 0 0.95 -0.10 1.75 -0.15 1.75 -0.10 0 -1.05 -1.05 -2.15 -2.35z"/>
  <path d="M388.45 572.90 c-0.90 -1.20 -1.85 -2.45 -2.10 -2.75 -0.35 -0.50 -0.10 -0.65 1.10 -0.65 1.20 0 1.55 0.20 1.55 1 0 0.55 0.35 1 0.75 1 0.50 0 0.75 0.55 0.75 1.75 0 0.95 -0.10 1.75 -0.20 1.75 -0.10 0 -0.95 -0.95 -1.85 -2.10z"/>
  <path d="M516 572.50 c0 -1.05 1.15 -1.30 3.40 -0.70 2.05 0.55 1.30 1.70 -1.15 1.70 -1.90 0 -2.25 -0.15 -2.25 -1z"/>
  <path d="M528.50 572.75 c0 -0.80 0.85 -1 7.75 -1.75 7.40 -0.90 17.90 -3.70 24.90 -6.70 l1.85 -0.80 0 1.25 c0 1.10 -0.20 1.25 -1.75 1.25 -1.10 0 -1.75 0.25 -1.75 0.65 0 0.75 -6.05 2.85 -8.15 2.85 -0.75 0 -1.35 0.20 -1.35 0.45 0 0.80 -15.75 3.55 -20.35 3.55 -0.70 0 -1.15 -0.30 -1.15 -0.75z"/>
  <path d="M505.25 571.95 c-5.90 -1.05 -12.85 -2.85 -13.25 -3.45 -0.15 -0.20 -1.15 -0.50 -2.25 -0.65 -1.10 -0.20 -2.05 -0.55 -2.15 -0.85 -0.10 -0.25 -0.70 -0.50 -1.35 -0.50 -0.65 0 -1.50 -0.35 -1.95 -0.75 -0.40 -0.40 -1.05 -0.75 -1.50 -0.75 -1.65 0 -3.30 -1.15 -3.30 -2.30 0 -1.35 -0.10 -1.35 5.50 1.15 6.40 2.90 15.40 5.50 23 6.65 2.05 0.30 4.50 0.65 5.40 0.80 0.95 0.15 1.60 0.55 1.60 0.95 0 1 -2.85 0.90 -9.75 -0.30z"/>
  <path d="M382.40 564.50 l-1.40 -1.75 1.30 -0.15 c1.65 -0.20 1.80 -0.05 1.60 1.95 l-0.15 1.70 -1.35 -1.75z"/>
  <path d="M376.85 555.80 c-1.85 -3.15 -3.35 -5.85 -3.35 -6 0 -0.15 0.55 -0.30 1.25 -0.30 1.10 0 1.25 0.20 1.25 1.75 0 1.40 0.20 1.75 1 1.75 0.75 0 1 0.35 1 1.25 0 0.80 0.30 1.25 0.75 1.25 0.45 0 0.75 0.45 0.75 1.25 0 0.80 0.30 1.25 0.75 1.25 0.50 0 0.75 0.55 0.75 1.75 0 0.95 -0.20 1.75 -0.40 1.75 -0.20 0 -1.90 -2.55 -3.75 -5.70z"/>
  <path d="M568.50 561.10 c0 -0.35 5.10 -3.60 5.70 -3.60 0.15 0 0.30 0.55 0.30 1.25 0 1 -0.25 1.25 -1.25 1.25 -0.80 0 -1.25 0.30 -1.25 0.75 0 0.50 -0.55 0.75 -1.75 0.75 -0.95 0 -1.75 -0.15 -1.75 -0.40z"/>
  <path d="M473.15 560.65 c-0.35 -0.10 -0.65 -0.55 -0.65 -0.95 0 -0.40 -0.50 -0.70 -1.25 -0.70 -0.80 0 -1.25 -0.30 -1.25 -0.75 0 -0.45 -0.45 -0.75 -1.25 -0.75 -0.70 0 -1.25 -0.20 -1.25 -0.50 0 -0.25 -0.35 -0.50 -0.75 -0.50 -0.40 0 -0.75 -0.20 -0.75 -0.50 0 -0.25 -0.35 -0.50 -0.75 -0.50 -0.40 0 -0.75 -0.35 -0.75 -0.75 0 -0.40 -0.45 -0.75 -1 -0.75 -0.65 0 -1 -0.35 -1 -0.95 0 -0.70 -0.40 -1.05 -1.35 -1.15 -1.10 -0.10 -1.45 -0.45 -1.55 -1.50 -0.15 -1.15 -0.40 -1.40 -1.50 -1.40 -2.10 0 -7.60 -5.70 -7.60 -7.85 0 -1.40 -0.15 -1.60 -1.60 -1.75 -1.25 -0.10 -1.70 -0.40 -1.80 -1.25 -0.10 -0.65 -0.50 -1.15 -0.90 -1.15 -0.40 0 -0.70 -0.40 -0.70 -0.95 0 -0.50 -0.45 -1.05 -1 -1.20 -0.55 -0.15 -1 -0.60 -1 -1.05 0 -0.45 -0.20 -0.80 -0.50 -0.80 -0.25 0 -0.50 -0.35 -0.50 -0.75 0 -0.40 -0.20 -0.75 -0.50 -0.75 -0.25 0 -0.50 -0.35 -0.50 -0.75 0 -0.40 -0.20 -0.75 -0.50 -0.75 -0.25 0 -0.50 -0.35 -0.50 -0.75 0 -0.40 -0.20 -0.75 -0.50 -0.75 -0.25 0 -0.50 -0.55 -0.50 -1.25 0 -0.80 -0.30 -1.25 -0.75 -1.25 -0.40 0 -0.75 -0.45 -0.75 -1 0 -0.55 -0.20 -1 -0.50 -1 -0.25 0 -0.50 -0.55 -0.50 -1.25 0 -0.75 -0.30 -1.25 -0.70 -1.25 -0.85 0 -1.30 -1.10 -1.30 -3.05 0 -2.70 0.45 -2.20 4 4.30 4.30 7.80 10.20 15.35 17.60 22.55 6 5.80 10.60 9.30 16.80 12.85 1.95 1.10 3.60 2.25 3.60 2.45 0 0.45 -2.85 0.50 -3.85 0.05z"/>
  <path d="M666 557.25 c0 -0.95 0.20 -1.75 0.45 -1.75 0.25 0 0.60 -0.55 0.75 -1.25 0.20 -0.70 0.65 -1.25 1.05 -1.25 0.45 0 0.75 -0.50 0.75 -1.20 0 -0.70 0.35 -1.55 0.75 -2 0.40 -0.40 0.75 -1.10 0.75 -1.50 0 -0.50 0.45 -0.80 1.25 -0.80 0.70 0 1.25 0.10 1.25 0.25 0 0.95 -6.05 11.25 -6.60 11.25 -0.20 0 -0.40 -0.80 -0.40 -1.75z"/>
  <path d="M575.50 556.75 c0 -0.10 1.75 -1.55 3.90 -3.20 2.10 -1.70 4.60 -3.65 5.50 -4.35 l1.60 -1.35 0 1.60 c0 1.45 -0.10 1.55 -1.75 1.55 -1.60 0 -1.75 0.10 -1.75 1.50 0 1.15 -0.20 1.50 -1 1.50 -0.55 0 -1 0.35 -1 0.75 0 0.40 -0.45 0.75 -1 0.75 -0.55 0 -1 0.35 -1 0.75 0 0.50 -0.55 0.75 -1.75 0.75 -0.95 0 -1.75 -0.10 -1.75 -0.25z"/>
  <path d="M591.40 542.65 c0.55 -0.80 1.45 -1.85 2.05 -2.35 1.05 -0.95 1.05 -0.95 1.05 0.75 0 2.15 -0.75 2.95 -2.65 2.95 l-1.40 0 0.95 -1.35z"/>
  <path d="M675.50 539.60 c0 -2 0.45 -3.10 1.25 -3.10 0.40 0 0.70 -0.80 0.85 -2 0.10 -1.10 0 -2 -0.20 -2 -0.25 0 -0.40 -0.90 -0.40 -2 0 -1.90 0.10 -2 1.50 -2 0.95 0 1.50 -0.25 1.50 -0.70 0 -0.40 0.25 -0.80 0.55 -0.90 0.30 -0.10 0.45 -0.70 0.35 -1.40 -0.15 -1.15 -0.20 -1.15 -1 -0.30 -0.50 0.45 -1.75 1 -2.75 1.15 -1.05 0.20 -2.20 0.60 -2.55 1 -0.35 0.35 -1.65 0.65 -2.90 0.65 -1.85 0 -2.30 -0.20 -2.80 -1.20 -0.50 -1.20 -1.05 -1.50 -5.05 -2.75 -1.80 -0.60 -1.90 -0.55 -3.50 1.10 -1.45 1.55 -1.90 1.75 -5.55 2.05 -2.35 0.20 -4.10 0.15 -4.25 -0.10 -0.50 -0.85 -5.45 -3.55 -7.40 -4.05 -1.05 -0.30 -2.75 -1.25 -3.80 -2.15 -1.55 -1.35 -2.05 -2.25 -2.65 -4.90 -0.85 -3.60 -0.65 -11.20 0.40 -15.15 0.30 -1.20 0.40 -2.80 0.20 -3.55 -0.30 -1.30 -0.50 -1.40 -1.95 -1.10 -4.05 0.85 -8.30 0.95 -9.45 0.20 -0.65 -0.40 -2.40 -0.90 -3.90 -1.10 l-2.75 -0.30 -1.35 5.60 c-0.75 3.10 -1.60 5.70 -1.90 5.80 -0.25 0.10 -0.50 0.85 -0.50 1.65 0 1.20 -0.20 1.45 -1.20 1.45 l-1.20 0 1.45 -4.25 c5.35 -16.15 6.35 -35.05 2.70 -53 -2.15 -10.60 -5.50 -18.75 -12.65 -30.50 -5.45 -9 -20.65 -31.65 -31.75 -47.30 -9.60 -13.55 -12.05 -17.10 -18.55 -26.80 -13.60 -20.35 -22.40 -35.60 -25.50 -44.20 -1.40 -3.95 -1.50 -5.40 -0.10 -1.70 0.50 1.25 1.15 2.55 1.50 2.90 0.30 0.30 1.10 1.85 1.70 3.35 1.60 3.80 2.20 5.05 3.15 6.50 0.40 0.70 1.85 3.30 3.20 5.75 2.35 4.50 5.05 8.80 6.95 11.35 0.60 0.70 1.55 1.95 2.20 2.80 0.60 0.80 1.65 2 2.30 2.65 0.65 0.65 1.35 1.75 1.55 2.40 0.20 0.65 1.50 2.85 2.95 4.90 1.40 2 2.75 4.15 3.05 4.65 0.65 1.30 1.25 1.30 0.90 0 -0.15 -0.55 -0.45 -1 -0.70 -1 -0.25 0 -0.45 -0.45 -0.45 -1 0 -0.55 -0.20 -1 -0.50 -1 -0.25 0 -0.50 -0.45 -0.50 -0.95 0 -0.55 -0.30 -1.05 -0.60 -1.20 -0.35 -0.10 -0.50 -0.40 -0.30 -0.60 0.20 -0.20 0.70 -0.10 1.10 0.20 0.45 0.40 0.80 0.40 1 0.10 0.30 -0.50 3.10 0.15 3.95 0.95 0.25 0.20 1.45 0.25 2.75 0.10 1.75 -0.20 2.70 -0.65 4 -1.95 1.55 -1.60 1.70 -1.95 1.45 -3.95 -0.10 -1.20 -0.05 -2.20 0.15 -2.20 0.50 0 4 4.25 6.45 7.90 1.15 1.70 2.75 3.90 3.55 4.80 1.55 1.75 3.55 4.50 7.25 9.90 1.25 1.80 3.25 4.40 4.40 5.75 1.20 1.30 2.90 3.65 3.85 5.15 0.95 1.50 3.05 4.35 4.65 6.35 1.55 2 3.70 4.95 4.70 6.55 1 1.55 2.95 4.45 4.40 6.35 1.40 1.95 3.85 5.30 5.40 7.50 3.60 5.05 6.45 8.20 6.75 7.35 0.10 -0.40 1.30 -0.60 3.35 -0.60 3.55 0 4.95 0.40 6.70 1.95 0.65 0.60 1.55 1.05 2 1.05 0.45 0 2.15 0.55 3.80 1.25 1.65 0.65 3.60 1.25 4.35 1.25 0.75 0 1.45 0.20 1.60 0.45 0.15 0.25 1.10 0.60 2.10 0.80 1 0.15 2.35 0.65 2.95 1.05 0.65 0.40 2.05 0.65 3.30 0.60 3.70 -0.20 12.60 0.65 14.40 1.40 0.90 0.40 2.65 0.70 3.80 0.70 1.15 0 3.10 0.35 4.30 0.75 2.25 0.80 5.65 0.65 6.25 -0.30 0.15 -0.25 0.80 -0.30 1.40 -0.15 1.15 0.25 1.15 0.25 0.65 -1.90 -0.25 -1.20 -0.65 -2.60 -0.85 -3.15 -0.25 -0.55 -0.55 -1.45 -0.65 -2 -0.55 -2.10 -2.50 -7.05 -3.90 -9.80 -0.80 -1.65 -1.95 -4.25 -2.55 -5.80 -0.55 -1.60 -1.55 -3.70 -2.20 -4.70 -0.60 -0.95 -2 -3.55 -3.15 -5.75 -1.10 -2.15 -2.90 -5.20 -4 -6.70 -1.10 -1.50 -2.85 -4.10 -3.90 -5.75 -3.55 -5.70 -7.75 -10.90 -19.50 -24.30 -3.10 -3.50 -5.85 -6.45 -6.05 -6.55 -0.25 -0.05 -1.95 -1.50 -3.85 -3.15 -9.40 -8.30 -13.05 -11.15 -19.75 -15.55 -2.90 -1.90 -8.25 -5.10 -11.85 -7.15 -7.40 -4.20 -11 -6.75 -4.90 -3.50 15.45 8.25 22.35 13 36.65 25.35 15 12.95 31.20 33.35 40.95 51.60 8.80 16.55 16.05 38.25 18.65 56.15 0.55 3.65 1.20 11.45 1.45 17.35 0.60 13.05 0.60 11.15 0 20.50 -0.45 7.35 -0.75 9.85 -2 17.50 -1.80 11 -6.60 27.35 -11.10 37.70 -2.65 6.10 -3.85 7.60 -3.85 4.90z"/>
  <path d="M367.50 537.90 l-0.95 -2.15 1.05 -0.15 c1.30 -0.25 1.90 0.65 1.90 2.80 0 2.20 -0.85 2 -2 -0.50z"/>
  <path d="M600.50 531.90 c0.90 -1.20 2.30 -3.20 3.20 -4.50 0.85 -1.30 1.70 -2.40 1.95 -2.40 0.20 0 0.35 0.80 0.35 1.75 0 0.95 -0.20 1.75 -0.50 1.75 -0.25 0 -0.50 0.35 -0.50 0.75 0 0.40 -0.35 0.75 -0.75 0.75 -0.40 0 -0.75 0.45 -0.75 1 0 0.55 -0.35 1 -0.75 1 -0.40 0 -0.75 0.45 -0.75 1 0 0.80 -0.35 1 -1.55 1 l-1.55 0 1.60 -2.10z"/>
  <path d="M364.80 531.10 c-1.15 -1.85 -7.30 -21.25 -7.30 -22.95 0 -0.35 0.40 -0.65 0.90 -0.65 0.65 0 1.20 1.25 2.50 5.90 0.90 3.20 1.60 6.25 1.60 6.75 0 0.45 0.20 0.85 0.40 0.85 0.50 0 1.60 3 1.60 4.35 0 0.60 0.25 1.15 0.55 1.25 0.75 0.25 1.25 4.90 0.55 4.90 -0.30 0 -0.65 -0.20 -0.80 -0.40z"/>
  <path d="M515.75 526.65 c-5.65 -0.75 -14.25 -3.55 -14.25 -4.65 0 -0.60 3.35 -0.70 3.60 -0.10 0.20 0.55 10.75 3.10 12.80 3.10 1.25 0 1.60 0.20 1.60 1 0 1.05 -0.40 1.10 -3.75 0.65z"/>
  <path d="M523.55 526.55 c-1.20 -0.75 -1.60 -14.10 -1.45 -45.85 0.10 -23.50 0 -29.70 -0.45 -29.70 -0.35 0 -0.65 -0.35 -0.65 -0.75 0 -0.40 -0.20 -0.75 -0.50 -0.75 -0.60 0 -1.50 -3.30 -1.50 -5.75 0 -2.55 1.25 -7.40 1.95 -7.65 0.30 -0.10 0.70 -1.05 0.85 -2.15 0.20 -1.15 0.60 -1.95 1 -1.95 0.40 0 0.70 0.30 0.70 0.70 0 1.05 1.05 1.20 2.95 0.45 5.15 -2.15 9.85 0.10 14.25 6.75 1.40 2 1.45 2.30 1.20 6.60 l-0.30 4.50 2.35 1.95 c2.75 2.30 8.05 5.05 9.70 5.05 2.05 0 6.25 1.50 7.75 2.75 1.95 1.65 5.10 1.75 5.10 0.20 0 -0.55 0.25 -0.85 0.50 -0.70 0.30 0.20 0.50 -0.30 0.50 -1.20 0 -0.80 -0.20 -1.65 -0.50 -1.80 -0.25 -0.15 -0.50 -0.65 -0.50 -1.05 0 -1.75 -4.55 -10.25 -10 -18.70 -10.80 -16.75 -20.20 -34.50 -26 -49 -1.65 -4.10 -3 -7.55 -3 -7.70 0 -0.85 -2.15 -5.80 -2.55 -5.80 -0.25 0 -0.55 0.55 -0.75 1.25 -0.15 0.70 -0.65 1.25 -1.10 1.25 -0.65 0 -0.70 -0.75 -0.45 -5.60 0.35 -6.10 0 -6.20 -1.40 -0.50 -0.55 1.95 -1.10 3.60 -1.35 3.60 -0.20 0 -0.40 0.60 -0.40 1.30 0 0.70 -0.50 2.95 -1.10 5 -0.95 3.10 -1.30 3.70 -2.25 3.70 l-1.05 0 1.20 -3.85 c1.85 -5.90 4.60 -16 5.25 -19.55 0.35 -1.85 0.80 -3.05 1.15 -2.95 0.30 0.10 0.95 2.20 1.40 4.65 2.40 12.60 7.10 25.65 15 41.40 4.40 8.85 6.65 12.70 14.60 25.30 9.20 14.65 12.50 20.55 14.75 26.50 5.40 14.30 4.60 30.95 -2 44.15 -4.10 8.10 -11.45 15.75 -19.45 20.25 -7.85 4.40 -20.55 7.45 -23.45 5.65z m11.45 -74.15 c3.15 -1.65 5.10 -4.30 5.40 -7.30 0.30 -3.30 -0.60 -5.80 -3.10 -8.50 -3.75 -4.10 -8.10 -4.80 -11.90 -1.95 -6.45 4.85 -5.80 14.35 1.25 17.60 3.25 1.55 5.50 1.55 8.35 0.15z"/>
  <path d="M606 524.20 c0 -0.65 2.20 -4.20 2.60 -4.20 0.45 0 0.55 2.55 0.10 3.70 -0.30 0.75 -2.70 1.20 -2.70 0.50z"/>
  <path d="M493.30 517.75 c-1.25 -1 -2.30 -1.90 -2.30 -2 0 -0.15 0.80 -0.25 1.75 -0.25 1.20 0 1.75 0.25 1.75 0.75 0 0.40 0.45 0.75 1 0.75 0.75 0 1 0.35 1 1.25 0 1.65 -0.40 1.60 -3.20 -0.50z"/>
  <path d="M432.60 515.25 c-0.35 -0.70 -0.60 -1.75 -0.60 -2.25 0 -0.55 -0.20 -1 -0.50 -1 -0.25 0 -0.50 -0.60 -0.50 -1.30 0 -0.70 -0.35 -1.60 -0.75 -2 -0.40 -0.45 -0.75 -1.45 -0.75 -2.25 0 -0.80 -0.20 -1.45 -0.40 -1.45 -0.70 0 -3.60 -13.40 -3.60 -16.60 0 -1.85 1.35 -1.85 1.70 0 0.15 0.75 0.50 2.80 0.80 4.60 0.85 5.65 4.05 16.40 5.95 19.90 0.30 0.55 0.75 1.60 1.05 2.30 0.40 1.15 0.35 1.30 -0.70 1.30 -0.75 0 -1.35 -0.45 -1.70 -1.25z"/>
  <path d="M611 514.20 c1.30 -3.45 2.50 -4.25 2.50 -1.75 0 2.20 -0.50 3.05 -1.80 3.05 -1.05 0 -1.15 -0.15 -0.70 -1.30z"/>
  <path d="M487 512 c-1.80 -1.80 -3.80 -4 -4.40 -4.90 l-1.15 -1.60 1.50 0 c1.40 0 1.55 0.15 1.55 1.45 0 1.25 0.20 1.50 1.40 1.65 1.05 0.10 1.40 0.45 1.50 1.55 0.15 1.05 0.45 1.35 1.40 1.35 1.35 0 1.85 0.80 1.60 2.60 -0.15 1.05 -0.45 0.85 -3.40 -2.10z"/>
  <path d="M356.60 504.40 c-0.55 -2.15 -2.60 -13.25 -2.60 -14 0 -0.20 0.45 -0.40 1 -0.40 0.70 0 1 0.35 1 1.15 0 0.60 0.60 3.80 1.25 7.10 0.70 3.30 1.25 6.50 1.25 7.15 0 1.95 -1.35 1.20 -1.90 -1z"/>
  <path d="M478.90 501.35 c-2.30 -3.85 -4.20 -8.90 -5.15 -13.45 -0.95 -4.45 -0.95 -4.90 0.20 -4.90 0.75 0 1 0.50 1.25 2.45 0.20 1.35 0.75 3.75 1.30 5.35 0.55 1.55 1 3.25 1 3.80 0 0.50 0.20 0.90 0.40 0.90 0.55 0 2.10 3.30 2.10 4.50 0 0.55 0.35 1 0.75 1 0.50 0 0.75 0.55 0.75 1.75 0 0.95 -0.20 1.75 -0.40 1.75 -0.20 0 -1.20 -1.40 -2.20 -3.15z"/>
  <path d="M353.80 487.90 c-0.50 -1.90 -0.35 -2.40 0.70 -2.40 0.80 0 1 0.35 1 1.75 0 2 -1.20 2.45 -1.70 0.65z"/>
  <path d="M425 484 c0 -1.80 0.20 -2.50 0.70 -2.50 0.75 0 1.30 1.50 1.30 3.65 0 1 -0.25 1.35 -1 1.35 -0.85 0 -1 -0.35 -1 -2.50z"/>
  <path d="M353.30 483.40 c-0.60 -2.25 -0.35 -3.40 0.70 -3.40 0.85 0 1 0.35 1 2.25 0 2.45 -1.15 3.20 -1.70 1.15z"/>
  <path d="M472.80 480.40 c-0.15 -0.65 -0.30 -2.50 -0.30 -4.15 0 -3.70 0.40 -5.25 1.30 -5.25 0.55 0 0.70 1.10 0.70 5.25 0 4.15 -0.15 5.25 -0.70 5.25 -0.35 0 -0.80 -0.50 -1 -1.10z"/>
  <path d="M424.50 473.25 c0 -5.90 0.05 -6.25 1 -6.25 0.95 0 1 0.35 1 6.25 0 5.90 -0.05 6.25 -1 6.25 -0.95 0 -1 -0.35 -1 -6.25z"/>
  <path d="M473.25 468.40 c1.05 -6.40 4.35 -15.85 5.65 -16.30 0.90 -0.30 0.80 3.15 -0.15 4.10 -0.40 0.40 -0.75 1.05 -0.75 1.40 0 0.35 -0.55 2.35 -1.20 4.40 -0.65 2.05 -1.35 4.80 -1.55 6.15 -0.30 1.90 -0.55 2.35 -1.35 2.35 -0.90 0 -0.95 -0.20 -0.65 -2.10z"/>
  <path d="M425.20 460.90 c0.60 -5.70 2.10 -12.70 4.30 -19.45 2.30 -7.20 2.50 -7.60 3.90 -7.35 1 0.15 1 0.15 -0.15 2.95 -0.65 1.55 -2 5.40 -2.95 8.60 -1.55 5 -2.15 8.05 -3.60 17.25 -0.15 1 -0.55 1.60 -1.05 1.60 -0.65 0 -0.75 -0.50 -0.45 -3.60z"/>
  <path d="M353 453.15 c0 -2.15 0.55 -3.65 1.30 -3.65 0.50 0 0.70 0.70 0.70 2.50 0 2.15 -0.15 2.50 -1 2.50 -0.75 0 -1 -0.35 -1 -1.35z"/>
  <path d="M479.50 450.20 c0 -0.60 1.70 -3.20 2.10 -3.20 0.20 0 0.40 0.80 0.40 1.75 0 1.55 -0.15 1.75 -1.25 1.75 -0.70 0 -1.25 -0.15 -1.25 -0.30z"/>
  <path d="M353.50 447.40 c0 -1.50 0.65 -2.90 1.30 -2.90 0.45 0 0.70 0.60 0.70 1.75 0 1.40 -0.20 1.75 -1 1.75 -0.55 0 -1 -0.30 -1 -0.60z"/>
  <path d="M483 444.20 c0 -0.60 1.70 -3.20 2.10 -3.20 0.20 0 0.40 0.80 0.40 1.75 0 1.55 -0.15 1.75 -1.25 1.75 -0.70 0 -1.25 -0.15 -1.25 -0.30z"/>
  <path d="M354 442.60 c0 -1.40 2.30 -12.95 3.45 -17.35 2.25 -8.50 4.20 -14.25 4.90 -14.25 0.35 0 0.65 0.55 0.65 1.35 0 1.70 -1.55 6.65 -2.10 6.65 -0.20 0 -0.40 0.50 -0.40 1.15 0 0.65 -0.80 4.25 -1.75 8 -0.95 3.75 -2 8.75 -2.35 11.10 -0.50 3.55 -0.75 4.25 -1.50 4.25 -0.55 0 -0.90 -0.35 -0.90 -0.90z"/>
  <path d="M489.50 434.20 c0 -0.60 1.70 -3.20 2.10 -3.20 0.20 0 0.40 0.80 0.40 1.75 0 1.55 -0.15 1.75 -1.25 1.75 -0.70 0 -1.25 -0.15 -1.25 -0.30z"/>
  <path d="M492 430.20 c0 -0.60 3.25 -5.70 3.60 -5.70 0.25 0 0.40 0.80 0.40 1.75 0 1.20 -0.25 1.75 -0.75 1.75 -0.45 0 -0.75 0.45 -0.75 1.25 0 1 -0.25 1.25 -1.25 1.25 -0.70 0 -1.25 -0.15 -1.25 -0.30z"/>
  <path d="M522 405 c0 -21.65 0 -22 1 -22 1 0 1 0.35 1 20.90 0 11.45 -0.15 21.35 -0.30 22 -0.20 0.60 -0.65 1.10 -1 1.10 -0.60 0 -0.70 -3.60 -0.70 -22z"/>
  <path d="M437.50 424.55 c0 -1.95 0.45 -3.05 1.30 -3.05 0.40 0 0.70 -0.50 0.70 -1.25 0 -0.70 0.25 -1.25 0.50 -1.25 0.30 0 0.50 -0.35 0.50 -0.75 0 -0.50 0.50 -0.75 1.50 -0.75 l1.55 0 -1.45 2.15 c-0.80 1.15 -1.95 3.05 -2.55 4.25 -1.25 2.45 -2.05 2.70 -2.05 0.65z"/>
  <path d="M496.50 422.75 c0 -0.60 5.75 -10.25 6.10 -10.25 0.45 0 0.55 2.55 0.10 3.70 -0.15 0.45 -0.60 0.80 -1 0.80 -0.40 0 -0.70 0.45 -0.70 0.95 0 1.50 -0.55 2.55 -1.30 2.55 -0.40 0 -0.70 0.50 -0.70 1.25 0 1 -0.25 1.25 -1.25 1.25 -0.70 0 -1.25 -0.10 -1.25 -0.25z"/>
  <path d="M503 411.20 c0 -0.70 3.15 -6.20 3.55 -6.20 0.75 0 0.50 3.40 -0.30 4.20 -0.40 0.40 -0.75 1.10 -0.75 1.50 0 0.50 -0.45 0.80 -1.25 0.80 -0.70 0 -1.25 -0.15 -1.25 -0.30z"/>
  <path d="M363.10 407.15 c1.95 -5.40 5.65 -13.30 6.30 -13.55 0.40 -0.10 0.60 0.35 0.60 1.35 0 1.90 -0.95 4.05 -1.85 4.05 -0.40 0 -0.65 0.60 -0.65 1.70 0 0.95 -0.35 2.05 -0.75 2.50 -0.40 0.40 -0.75 1.20 -0.75 1.75 0 0.60 -0.20 1.05 -0.45 1.05 -0.25 0 -0.55 0.90 -0.75 2 -0.25 1.70 -0.50 2 -1.55 2 l-1.25 0 1.10 -2.85z"/>
  <path d="M510.80 395.90 c3.90 -10.05 5.20 -12.30 5.20 -9.05 0 1.65 -1.50 6.15 -2.10 6.15 -0.20 0 -0.40 0.45 -0.40 0.95 0 1.70 -0.60 2.55 -1.80 2.55 -0.75 0 -1.10 -0.25 -0.90 -0.60z"/>
  <path d="M427.55 394.40 c-0.35 -1 -0.80 -1.15 -3.60 -1.25 -4.75 -0.15 -15.50 -1.05 -17 -1.40 -0.95 -0.25 -1.65 0 -2.75 0.90 -1.40 1.15 -2.40 1.45 -7.80 2.15 -2.05 0.30 -2.65 0.10 -5.50 -1.60 -1.70 -1 -3.65 -2.15 -4.20 -2.50 -0.60 -0.35 -1.75 -1.70 -2.50 -3 -1.85 -3 -4.70 -6 -4.70 -4.95 0 0.55 -0.55 0.75 -2 0.75 -1.65 0 -2 0.15 -2 1 0 1.45 -2.10 5.50 -2.85 5.50 -0.35 0 -0.65 0.55 -0.65 1.25 0 1 -0.25 1.25 -1.25 1.25 -1.40 0 -1.40 0 1.15 -4.90 6.40 -12.35 12.80 -21.75 23.15 -34.10 15.85 -18.90 37.15 -35.50 62.70 -48.75 17.85 -9.30 23.90 -13 29.95 -18.45 5.75 -5.15 10.80 -11.10 14.55 -17.20 3.75 -6.10 10.15 -18.90 11.65 -23.35 1.95 -5.60 6.60 -25.45 7.50 -31.60 0.70 -4.95 1 -6.15 1.65 -6.15 0.65 0 0.90 0.95 1.25 5.15 0.80 9.15 0.30 16.85 -1.05 16.85 -0.60 0 -0.75 -0.95 -0.80 -4.60 -0.05 -4.15 -0.10 -4.45 -0.55 -2.65 -0.25 1.10 -1.50 6.15 -2.75 11.25 -1.25 5.10 -2.45 9.35 -2.70 9.40 -0.25 0.10 -0.45 0.85 -0.45 1.65 0 0.80 -0.20 1.45 -0.50 1.45 -0.25 0 -0.50 0.60 -0.50 1.30 0 1.70 -1.95 6.20 -2.75 6.20 -0.65 0 -1.25 3.55 -1.25 7.75 0 1.40 -0.35 3.90 -0.75 5.55 -0.40 1.70 -0.95 4.55 -1.25 6.35 -0.25 1.75 -1.05 4.50 -1.75 6.10 -0.70 1.60 -1.70 4.60 -2.20 6.70 -0.55 2.10 -1.40 4.90 -2 6.20 -0.60 1.35 -1.05 2.70 -1.05 3.05 0 1.80 -7.75 15.80 -13.05 23.60 -0.90 1.40 -4.25 6.35 -7.40 11 -3.10 4.65 -7.20 10.50 -9 12.95 -1.85 2.50 -5 6.85 -7.05 9.75 -2 2.90 -4.85 6.85 -6.25 8.75 -4.50 6.10 -14.50 19.90 -16.60 23 -1.15 1.65 -2.60 3.55 -3.25 4.25 -0.65 0.70 -1.50 1.90 -1.90 2.70 -0.40 0.75 -1.20 1.60 -1.75 1.90 -0.55 0.25 -1.55 0.75 -2.25 1.15 -0.70 0.40 -2.20 0.75 -3.40 0.75 -1.75 0 -2.20 -0.20 -2.55 -1.10z"/>
  <path d="M522 380.25 c0 -1.90 0.15 -2.25 1 -2.25 0.85 0 1 0.35 1 2.25 0 1.90 -0.15 2.25 -1 2.25 -0.85 0 -1 -0.35 -1 -2.25z"/>
  <path d="M583.90 303.20 c-1.35 -0.65 -2.40 -1.35 -2.40 -1.45 0 -0.15 1.15 0.30 2.50 1 1.40 0.70 2.50 1.40 2.50 1.50 0 0.35 0.05 0.35 -2.60 -1.05z"/>
  <path d="M577.40 299.70 c-1.95 -1.05 -1.75 -1.40 0.25 -0.40 1.85 0.95 2.20 1.20 1.55 1.20 -0.25 -0.05 -1.05 -0.40 -1.80 -0.80z"/>
  <path d="M573.25 297.45 c-0.80 -0.50 -1.30 -0.95 -1.10 -0.95 0.55 0 3.35 1.45 3.35 1.75 0 0.45 -0.75 0.20 -2.25 -0.80z"/>
  <path d="M519.50 293.70 c0 -0.70 0.45 -3.15 1 -5.40 0.55 -2.20 1.10 -4.65 1.25 -5.40 0.35 -1.85 2.25 -2 2.25 -0.20 0 0.70 -0.20 1.40 -0.50 1.55 -0.25 0.15 -0.50 0.80 -0.50 1.40 0 2.20 -2.15 9.35 -2.85 9.35 -0.35 0 -0.65 -0.55 -0.65 -1.30z"/>
  <path d="M565.85 293 c-1.30 -0.80 -2.35 -1.60 -2.35 -1.70 0 -0.15 1.15 0.45 2.50 1.30 2.20 1.35 2.85 1.90 2.35 1.90 -0.10 0 -1.20 -0.65 -2.50 -1.50z"/>
  <path d="M559 287.65 c-4.65 -4.10 -5.20 -4.65 -4.65 -4.65 0.45 0.05 9.05 8 8.65 8 -0.15 0 -1.95 -1.50 -4 -3.35z"/>
  <path d="M549.45 278.65 c-1.95 -2.15 -4.75 -5.70 -6.20 -7.90 -2.80 -4.30 -6.40 -10.80 -6.10 -11.05 0.10 -0.10 0.80 1 1.55 2.40 2.50 4.60 7.80 12.25 11.35 16.35 1.95 2.25 3.40 4.05 3.30 4.05 -0.15 0 -1.90 -1.75 -3.90 -3.85z"/>
  <path d="M522 245.50 c0 -2.15 0.15 -2.50 1 -2.50 0.85 0 1 0.35 1 2.50 0 2.15 -0.15 2.50 -1 2.50 -0.85 0 -1 -0.35 -1 -2.50z"/>
  <path d="M529.75 241.25 c-1.05 -3.70 -0.70 -4.10 0.45 -0.45 0.50 1.55 0.75 2.90 0.65 3.05 -0.15 0.10 -0.65 -1.05 -1.10 -2.60z"/>
 </g>
 <g fill="#066d35">
  <path d="M388.15 831.15 c-0.50 -0.20 -0.65 -3.95 -0.65 -16.40 0 -8.90 0.15 -16.50 0.30 -16.95 0.20 -0.55 0.95 -0.80 2.45 -0.80 4.05 0 3.75 -1.35 3.75 17.25 0 18.45 0.25 17.30 -3.40 17.20 -1 0 -2.15 -0.15 -2.45 -0.30z"/>
  <path d="M414.85 831.15 c-0.45 -0.40 -0.45 -16.75 0 -26.55 l0.30 -7.60 1.60 0 c1.40 0 2.05 0.55 5.35 4.65 4.35 5.30 13.80 16.05 14.30 16.20 0.20 0.10 0.35 -4.20 0.35 -9.50 0 -5.25 0.10 -10 0.20 -10.50 0.15 -0.75 0.60 -0.85 2.85 -0.75 l2.70 0.15 0.05 17 0.10 17 -1.80 0.15 c-2.15 0.20 -1.45 0.90 -11.30 -11.05 -4.25 -5.15 -7.90 -9.35 -8.15 -9.35 -0.20 0 -0.40 4.50 -0.40 9.95 0 8.60 -0.10 10 -0.80 10.25 -1.05 0.40 -4.95 0.40 -5.35 -0.05z"/>
  <path d="M468.95 830.35 c-2.90 -1.20 -5.35 -2.75 -6.35 -4 -0.50 -0.55 -0.25 -1.10 1.05 -2.55 0.90 -1 2.05 -1.80 2.50 -1.80 0.45 0 1.75 0.65 2.95 1.45 5.30 3.55 11.90 2.95 11.90 -1.10 0 -1.85 -1.90 -3.15 -6.75 -4.60 -5.50 -1.70 -7.55 -2.70 -9.50 -4.75 -1.30 -1.35 -1.50 -1.95 -1.65 -5.20 -0.20 -3.25 -0.05 -3.90 1.10 -5.70 0.70 -1.15 2.25 -2.70 3.40 -3.45 1.90 -1.30 2.45 -1.40 7.10 -1.40 4.45 0 5.40 0.15 7.95 1.35 3.30 1.55 3.75 2.25 2.65 4.25 -1.95 3.50 -1.90 3.50 -5.70 1.75 -4.25 -2 -7.45 -2.15 -8.95 -0.45 -2.65 2.90 -1.40 5.45 3.25 6.35 8.40 1.75 12.35 4.20 13.55 8.60 1.20 4.20 -1.10 8.70 -5.65 11 -3.20 1.65 -9.25 1.80 -12.85 0.25z"/>
  <path d="M508.25 830.85 c-0.15 -0.30 -0.20 -8.05 -0.15 -17.10 l0.15 -16.50 3 0 3 0 0.15 16.45 c0.10 11.70 -0.05 16.65 -0.45 17.10 -0.75 0.90 -5.40 0.95 -5.70 0.05z"/>
  <path d="M548 831.05 c-4.95 -1.65 -9.10 -5.10 -11.05 -9.25 -1.80 -3.85 -2.15 -6.35 -1.45 -10.30 1.10 -6.20 5.30 -11.40 10.80 -13.45 3.50 -1.35 8.95 -1.35 12.55 -0.15 2.55 0.90 7.10 3.95 7.15 4.80 0 0.20 -0.95 1.25 -2.10 2.25 l-2.05 1.85 -3.35 -1.70 c-6.60 -3.40 -11.70 -2.40 -15.30 3.05 -3.65 5.50 -0.75 14.20 5.55 16.65 2.60 0.95 7.65 0.80 10 -0.35 1.40 -0.65 1.50 -0.90 1.65 -3.90 0.15 -3.10 0.15 -3.15 -1 -2.85 -3.30 0.95 -5.95 1.45 -6.20 1.20 -0.55 -0.60 -0.80 -5.75 -0.30 -6.10 0.30 -0.20 3.45 -0.45 7.05 -0.65 l6.45 -0.30 0.35 2.70 c0.15 1.50 0.25 4.95 0.15 7.70 l-0.15 5 -3.75 1.90 c-3.50 1.80 -4.20 1.95 -8.75 2.15 -2.75 0.10 -5.55 0 -6.25 -0.25z"/>
  <path d="M609.85 831.15 c-0.20 -0.15 -0.35 -3.55 -0.35 -7.50 l0 -7.20 -7.85 0.15 -7.90 0.15 -0.15 7.15 -0.15 7.10 -3.30 0 -3.30 0 0.30 -16.85 0.25 -16.90 3.25 -0.15 3.30 -0.15 -0.30 7.05 -0.30 7 8.05 0 8.05 0 0.15 -6.85 0.15 -6.90 3.40 -0.15 3.35 -0.15 0 16.50 c0 9.05 -0.15 16.80 -0.30 17.25 -0.25 0.60 -1 0.80 -3.15 0.80 -1.60 0 -3.05 -0.15 -3.20 -0.35z"/>
  <path d="M644.50 831.15 c-0.05 -0.25 0 -6.65 0 -14.25 l0.05 -13.85 -5.15 -0.15 -5.10 -0.15 0 -2.75 -0.05 -2.75 13.50 0 13.50 0 0 2.75 0 2.75 -5.10 0.15 -5.15 0.15 0 8.60 c0 4.75 -0.15 11.15 -0.35 14.25 l-0.30 5.60 -2.95 0 c-1.60 0 -2.90 -0.15 -2.90 -0.35z"/>
  <path d="M379 761.15 c-0.40 -0.15 -0.90 -0.55 -1.10 -0.85 -0.50 -0.75 -0.50 -68.90 0 -69.70 0.35 -0.45 2.10 -0.60 7.15 -0.50 l6.70 0.15 0.15 14.40 0.10 14.35 15.65 -0.10 15.60 -0.15 0.15 -14.40 0.10 -14.40 7.15 0.15 7.10 0.15 0 34.95 c-0.05 33.75 -0.05 34.95 -1 35.60 -0.65 0.50 -2.50 0.70 -6.35 0.70 -7.90 0 -7.40 1.05 -7.40 -15.25 l0 -13.25 -15.50 0 -15.50 0 0 13.15 c0 10.50 -0.15 13.35 -0.70 14.10 -0.60 0.85 -1.40 1 -6.10 1.05 -3 0.05 -5.80 0 -6.20 -0.15z"/>
  <path d="M486.75 761.15 c-20.10 -0.15 -22.05 -0.25 -22.65 -1 -0.50 -0.70 -0.60 -8.05 -0.60 -34.35 0.05 -18.45 0.15 -34.05 0.30 -34.65 l0.30 -1.15 23.95 0 24 0 -0.15 6.90 -0.15 6.85 -16.35 0.15 -16.40 0.10 0 7.45 c0 6.35 0.10 7.50 0.80 7.75 0.45 0.15 6.25 0.30 12.95 0.30 6.65 0 12.75 0.15 13.55 0.30 l1.45 0.30 -0.05 6.30 0 6.35 -14.35 0.15 -14.35 0.10 0 7 c0 3.85 0.05 7.05 0.15 7.10 0.05 0.05 7.55 0.25 16.60 0.40 l16.50 0.25 0.15 6.20 c0.15 6.70 -0.15 7.65 -2.35 7.45 -0.70 -0.10 -11.20 -0.20 -23.30 -0.25z"/>
  <path d="M538.90 760.95 c-0.85 -0.45 -0.90 -2.70 -0.90 -35.70 l0 -35.25 6.40 0 6.40 0 6.20 8.15 c3.40 4.45 8.40 11.10 11.15 14.75 4.90 6.50 5 6.60 6 5.75 1 -0.90 13.35 -15.90 19.55 -23.80 1.90 -2.40 3.95 -4.50 4.50 -4.65 0.60 -0.15 3.40 -0.20 6.30 -0.10 l5.25 0.15 0.15 34.25 c0.05 18.85 0 34.75 -0.15 35.40 -0.25 1.05 -0.45 1.10 -6.65 1.10 -4.30 0 -6.60 -0.20 -7 -0.60 -0.45 -0.45 -0.60 -6 -0.60 -22 0 -11.75 -0.15 -21.40 -0.35 -21.40 -0.25 0 -2.05 2.35 -4 5.15 -3.90 5.45 -16.95 21.35 -17.60 21.35 -0.35 0 -3 -3.30 -10.05 -12.45 -1 -1.25 -3.65 -4.90 -5.95 -8.05 -2.25 -3.15 -4.25 -5.65 -4.40 -5.50 -0.15 0.15 -0.20 9.65 -0.20 21.10 0.10 25.20 0.85 22.90 -7.55 22.90 -3.10 0 -6.05 -0.25 -6.50 -0.55z"/>
  <path d="M660.70 760.55 c-12.55 -3.40 -23.35 -14.35 -26.50 -26.80 -1.15 -4.60 -1.15 -11.90 0.05 -16.50 2.60 -10.40 9.25 -18.80 18.90 -23.80 7.25 -3.75 13.10 -4.85 21.30 -3.95 8.35 0.90 14.80 3.85 20.50 9.20 7.75 7.40 11.55 16.25 11.55 26.80 0 6.45 -0.90 10.35 -3.85 16.45 -1.90 3.95 -2.95 5.45 -6.35 8.80 -3.30 3.35 -4.95 4.55 -8.80 6.45 -6.40 3.15 -9.10 3.80 -16.75 4.10 -5.35 0.15 -7.10 0.05 -10.05 -0.75z m15.90 -14.60 c7.85 -2.65 13.50 -9.55 14.95 -18.40 0.50 -2.95 0.50 -4.35 0 -6.70 -2.15 -10.40 -10.60 -16.85 -22.15 -16.85 -6.15 0 -10.90 1.90 -14.95 6.05 -4.20 4.25 -5.65 7.55 -5.85 13.50 -0.35 7.70 1.50 12.55 6.55 17.35 2.60 2.45 5.30 4.05 8.80 5.35 2.85 1.05 9.10 0.90 12.65 -0.30z"/>
  <path d="M512 638.40 c-36.50 -2.75 -69.20 -15.60 -97.45 -38.25 -16 -12.90 -33.40 -34.90 -43.45 -55 -8.90 -17.70 -15.35 -39.55 -17.35 -58.60 -0.85 -7.90 -1 -28.50 -0.25 -37.05 1.75 -20.60 8.25 -42.30 18.40 -61.50 5.25 -9.95 11.45 -19.80 16.55 -26.25 15.10 -19.10 27.75 -30.75 48.30 -44.60 3.95 -2.65 15 -9.25 17.50 -10.50 21.90 -10.65 33.30 -18.45 41.50 -28.25 6.75 -8.15 15.45 -24 18.70 -34.10 2.55 -8 6.15 -23.25 7.60 -32.55 l0.65 -4 0.60 2.15 c0.75 2.55 0.75 1.95 0.70 41.35 0 17 -0.20 31.65 -0.45 32.50 -0.25 0.80 -0.95 3.55 -1.55 6 -1.50 6.45 -3.25 10.85 -6.50 16.25 -1.55 2.60 -3.50 6.60 -4.35 8.85 -0.85 2.25 -2 4.70 -2.60 5.50 -3.95 5.15 -5.95 8.10 -6.30 9.15 -0.20 0.70 -1.60 3.30 -3.15 5.75 -1.50 2.50 -3.75 6.20 -5 8.25 -1.20 2.05 -2.60 4.20 -3.10 4.75 -1.20 1.40 -13.50 19.20 -18.25 26.50 -2.15 3.30 -6.80 9.95 -10.30 14.75 -3.45 4.80 -7 9.90 -7.85 11.30 -0.80 1.40 -4.25 6.60 -7.65 11.50 -17.40 25.35 -23.20 47.20 -19.90 75.20 1.20 10.45 3.85 19.30 8.45 28.80 10.65 21.70 24.75 35.95 45.40 45.80 27.45 13.20 58.60 13.15 84.90 -0.10 11.90 -5.95 20.75 -13.20 30.50 -24.90 8.10 -9.70 12.70 -17.25 16.75 -27.40 9.45 -23.85 8.50 -55.65 -2.35 -77.25 -4 -8.10 -13.25 -22.80 -24.45 -38.95 -3.95 -5.70 -5.85 -8.65 -5.10 -8 1.55 1.40 19.85 28.70 25.30 37.70 6.75 11.15 10.20 20.40 13.05 34.80 1 5 1.45 21.90 0.85 31.15 -0.15 2.55 -0.10 4.35 0.20 4.35 0.25 0 0.45 -0.40 0.45 -0.85 0 -0.70 0.15 -0.65 1.05 0.30 0.70 0.70 1.35 1 2 0.80 0.60 -0.20 1.70 0.10 2.75 0.80 1.75 1.10 1.85 1.10 5.95 0.25 4.60 -0.90 5.65 -0.70 5.95 0.90 0.65 3 0.65 4.15 0.05 6.25 -1.15 4.05 -1.40 9 -0.55 12.55 0.65 2.65 1.10 3.55 2.65 4.90 1.05 0.90 2.75 1.85 3.80 2.15 1.90 0.50 7 3.25 7.25 3.90 0.05 0.20 1.40 0.20 2.95 0.05 2.40 -0.30 3 -0.55 4.25 -2 0.75 -0.95 1.40 -1.90 1.40 -2.10 0 -0.70 1.70 -0.45 3.75 0.60 1.10 0.50 2.60 1.10 3.35 1.25 1.35 0.25 1.85 0.65 3.10 2.45 0.75 1.05 2.80 0.70 2.80 -0.50 0 -0.50 0.35 -0.65 1.25 -0.40 0.75 0.20 1.60 0.05 2 -0.30 0.40 -0.35 0.75 -0.45 0.75 -0.30 0 0.20 0.60 -0.25 1.35 -0.95 1.55 -1.40 1.95 -1.50 2.40 -0.75 0.35 0.60 2.25 -2.75 2.25 -3.95 0 -0.40 0.40 -2 0.95 -3.50 3.15 -9.60 4.75 -15.65 5.65 -21.80 0.60 -4.25 1.50 -6.70 1.10 -3 -1.40 12.85 -6.35 31.15 -11.75 43.85 -5.70 13.50 -12.40 25.20 -19.80 34.80 -8.85 11.45 -10.60 13.55 -15.90 19.05 -21.35 22.10 -50 38.45 -81 46.25 -16 4 -34 5.50 -50.75 4.20z m-79 -245.60 c0.40 -0.35 1.10 -0.75 1.50 -0.90 0.45 -0.15 1.10 -0.90 1.50 -1.70 0.40 -0.80 1.25 -2 1.90 -2.70 0.65 -0.70 2.10 -2.60 3.25 -4.25 2.10 -3.10 12.10 -16.90 16.60 -23 1.40 -1.90 4.25 -5.85 6.25 -8.75 2.05 -2.90 5.20 -7.25 7.05 -9.75 1.80 -2.45 5.90 -8.30 9 -12.95 3.15 -4.65 6.50 -9.60 7.40 -11 5.30 -7.80 13.05 -21.80 13.05 -23.60 0 -0.35 0.45 -1.70 1.05 -3.05 0.60 -1.30 1.45 -4.10 2 -6.20 0.50 -2.10 1.50 -5.10 2.20 -6.70 0.70 -1.60 1.50 -4.35 1.75 -6.10 0.30 -1.80 0.85 -4.65 1.25 -6.35 0.40 -1.65 0.75 -3.80 0.75 -4.70 0 -2 -0.60 -1.55 -2.45 1.90 -4.70 8.90 -9.90 15.80 -16.45 22 -4.65 4.45 -5.40 5 -10.35 8.40 -2.65 1.80 -23.45 13 -28.60 15.45 -4.35 2 -23.20 14.70 -26.75 17.95 -1 0.95 -2.05 1.70 -2.25 1.70 -0.25 0 -0.75 0.45 -1.15 1 -0.40 0.55 -1 1 -1.35 1 -0.35 0 -2.25 1.60 -4.20 3.50 -1.95 1.95 -3.75 3.50 -4 3.50 -0.25 0 -2.65 2.10 -5.25 4.65 -4.25 4.05 -7.90 8.35 -14.55 17.05 -1.05 1.35 -2.50 3.10 -3.30 3.85 -1.65 1.65 -4.85 6.20 -4.85 6.95 0 0.25 -0.20 0.50 -0.45 0.50 -0.25 0 -0.70 0.70 -1 1.50 -0.25 0.85 -0.70 1.50 -1 1.50 -0.25 0 -0.40 0.40 -0.30 0.90 0.05 0.45 -0.20 1.25 -0.65 1.75 -0.40 0.45 -0.60 1 -0.45 1.15 0.15 0.20 -0.20 0.75 -0.80 1.25 -0.95 0.75 -1 1 -0.40 1.55 0.50 0.45 0.60 0.45 0.35 0 -0.50 -0.85 1.05 -1.35 1.95 -0.60 0.40 0.35 0.60 0.80 0.45 1.05 -0.15 0.25 0.35 1.10 1.15 1.90 0.75 0.75 2.05 2.45 2.85 3.75 0.75 1.30 1.90 2.65 2.50 3 0.55 0.35 2.45 1.45 4.20 2.50 2.80 1.70 3.30 1.85 4.70 1.35 0.85 -0.30 2.10 -0.55 2.80 -0.55 0.65 0 1.90 -0.60 2.75 -1.30 1.40 -1.20 1.80 -1.30 4.60 -1 1.65 0.20 5.60 0.50 8.75 0.70 3.15 0.20 6 0.50 6.30 0.70 0.30 0.20 1.30 0.15 2.20 -0.10 2.25 -0.65 4 -0.15 4.55 1.35 0.40 1.05 0.70 1.20 1.85 0.90 0.75 -0.15 1.70 -0.60 2.10 -0.95z"/>
  <path d="M515.30 526.45 c-16.30 -2.40 -30.20 -12.60 -37.65 -27.70 -3.40 -6.85 -4.70 -13 -4.70 -22.15 0 -13.35 3.20 -22.10 14.40 -39.40 11.35 -17.50 22.55 -38.05 26.40 -48.45 3.40 -9.10 8.25 -26.35 8.25 -29.25 0 -1.85 0.90 -1 1.45 1.40 1.50 6.60 1.70 8.50 1.05 10.20 -0.45 1.25 -0.70 9.65 -0.85 32.90 l-0.20 31.25 -1.30 2.65 c-1.95 3.95 -1.90 7.80 0.10 10.70 0.85 1.15 2.30 2.70 3.25 3.35 1.65 1.10 1.55 1.15 -0.60 0.30 -0.70 -0.25 -0.85 0.15 -1.15 2.95 -0.45 4.05 0.05 66.55 0.50 68.45 0.25 0.90 0.80 1.45 1.65 1.70 1.65 0.40 8.45 -0.70 12.35 -1.95 6.15 -2 14.75 -6.85 18 -10.10 0.70 -0.70 1.45 -1.30 1.60 -1.30 0.80 0 -3.35 3.70 -6.60 5.95 -10.80 7.45 -23.15 10.35 -35.95 8.50z"/>
  <path d="M559.85 509.50 c0.70 -1.05 4.20 -5.70 4.55 -6 0.90 -0.85 -1.85 3.20 -3.25 4.80 -1 1.10 -1.55 1.60 -1.30 1.20z"/>
  <path d="M640.60 495.50 c0 -0.95 0.15 -2.20 0.40 -2.75 0.35 -0.85 0.45 -0.75 0.40 0.50 0 0.85 -0.20 2.05 -0.40 2.75 -0.35 1.15 -0.40 1.10 -0.40 -0.50z"/>
  <path d="M691.65 483.25 c0 -1.35 0.10 -1.90 0.20 -1.10 0.10 0.75 0.10 1.85 0 2.50 -0.10 0.60 -0.20 0 -0.20 -1.40z"/>
  <path d="M691.70 454.25 c0 -2.75 0.05 -3.80 0.15 -2.35 0.10 1.45 0.10 3.70 0 5 -0.10 1.30 -0.15 0.10 -0.15 -2.65z"/>
  <path d="M690.65 444.50 c0 -1.25 0.10 -1.75 0.20 -1.10 0.10 0.60 0.10 1.60 0 2.25 -0.10 0.60 -0.20 0.10 -0.20 -1.15z"/>
  <path d="M685.30 419.70 c-0.20 -0.70 -0.25 -1.40 -0.15 -1.55 0.15 -0.10 0.40 0.40 0.55 1.15 0.20 0.70 0.25 1.40 0.15 1.55 -0.15 0.10 -0.40 -0.40 -0.55 -1.15z"/>
  <path d="M539.75 407.50 c-0.45 -0.80 -0.65 -1.50 -0.55 -1.50 0.15 0 0.60 0.70 1.05 1.50 0.45 0.85 0.65 1.50 0.55 1.50 -0.15 0 -0.60 -0.65 -1.05 -1.50z"/>
  <path d="M577.75 381.15 c-4.60 -6.45 -7.80 -11.15 -7.55 -11.15 0.15 0 2.45 3.10 5.10 6.90 2.65 3.75 5.05 7.15 5.35 7.50 0.25 0.30 0.35 0.60 0.20 0.60 -0.20 0 -1.55 -1.75 -3.10 -3.85z"/>
 </g>
</svg>