<svg xmlns="http://www.w3.org/2000/svg" version="1.0" preserveAspectRatio="xMidYMid meet" viewBox="352.98 21.75 340.04 431.25">
 <g fill="#0de97d">
  <path d="M629.50 413.55 c0 -1.45 0.15 -1.55 1.80 -1.55 1.95 0 1.90 0.45 -0.30 2 l-1.50 1.05 0 -1.50z"/>
  <path d="M638.10 405.95 c0.15 -1.60 0.30 -1.70 2.10 -1.85 1.80 -0.15 1.90 -0.10 1.30 0.65 -0.35 0.45 -1.30 1.25 -2.10 1.85 l-1.45 1 0.15 -1.65z"/>
  <path d="M505 385 c0 -1.05 0.50 -1.20 2.40 -0.70 1.80 0.50 1.35 1.70 -0.65 1.70 -1.40 0 -1.75 -0.20 -1.75 -1z"/>
  <path d="M528.50 340 c0 -0.80 0.35 -1 1.75 -1 2 0 2.45 1.20 0.65 1.70 -1.90 0.50 -2.40 0.35 -2.40 -0.70z"/>
  <path d="M437.50 337.25 c0 -2.15 0.70 -2.25 1.75 -0.25 1 1.90 0.95 2 -0.50 2 -1.10 0 -1.25 -0.20 -1.25 -1.75z"/>
  <path d="M539.50 337.30 c0 -1.15 0.20 -1.30 1.75 -1.30 2.65 0 2.30 0.65 -1.35 2.40 -0.25 0.10 -0.40 -0.40 -0.40 -1.10z"/>
  <path d="M546.50 333.80 c0 -1.10 0.20 -1.30 1.50 -1.30 1.15 0 1.50 -0.20 1.50 -1 0 -0.55 0.35 -1 0.75 -1 0.40 0 0.75 -0.20 0.75 -0.50 0 -0.25 0.80 -0.50 1.80 -0.50 2.20 0 1.95 0.45 -1.80 3 -4.10 2.75 -4.50 2.90 -4.50 1.30z"/>
  <path d="M555 327.60 c0 -0.75 0.25 -1.65 0.60 -2 0.35 -0.35 1.25 -0.60 2 -0.60 1.40 0 1.40 0.05 0.65 1.20 -0.45 0.70 -1.35 1.60 -2.05 2.05 -1.15 0.75 -1.20 0.75 -1.20 -0.65z"/>
  <path d="M686 323.75 c0 -1.40 0.20 -1.75 1 -1.75 1.05 0 1.20 0.50 0.70 2.40 -0.50 1.80 -1.70 1.35 -1.70 -0.65z"/>
  <path d="M687.50 317.25 c0 -1.40 0.20 -1.75 1 -1.75 1.05 0 1.20 0.50 0.70 2.40 -0.50 1.80 -1.70 1.35 -1.70 -0.65z"/>
  <path d="M564 316.50 c0 -2.30 1 -4 2.30 -4 1.05 0 1.15 0.15 0.65 1.35 -0.70 1.90 -2.10 4.15 -2.55 4.15 -0.20 0 -0.40 -0.65 -0.40 -1.50z"/>
  <path d="M688.50 312.25 c0 -1.40 0.20 -1.75 1 -1.75 1.05 0 1.20 0.50 0.70 2.40 -0.50 1.80 -1.70 1.35 -1.70 -0.65z"/>
  <path d="M568 306.75 c0 -0.95 0.20 -1.75 0.40 -1.75 0.25 0 0.75 -2.25 1.10 -5 0.55 -4.35 0.75 -5 1.55 -5 0.55 0 0.95 0.35 0.95 0.90 0 1.75 -2.10 11.05 -2.70 12.05 -0.70 1.10 -1.30 0.50 -1.30 -1.20z"/>
  <path d="M689.50 306.80 c0 -0.65 0.15 -2.20 0.30 -3.50 0.25 -1.85 0.55 -2.30 1.30 -2.30 1 0 1.05 0.65 0.10 5.65 -0.35 1.65 -1.70 1.80 -1.70 0.15z"/>
  <path d="M426 305.25 c0 -2 1.20 -2.45 1.70 -0.60 0.50 1.85 0.35 2.35 -0.70 2.35 -0.80 0 -1 -0.35 -1 -1.75z"/>
  <path d="M690.50 297.75 c0 -1.40 0.20 -1.75 1 -1.75 1.05 0 1.20 0.50 0.70 2.40 -0.50 1.80 -1.70 1.35 -1.70 -0.65z"/>
  <path d="M691 290.25 c0 -1.90 0.15 -2.25 1 -2.25 1.05 0 1.30 1.15 0.70 3.40 -0.55 2.05 -1.70 1.30 -1.70 -1.15z"/>
  <path d="M691 284.75 c0 -1.40 0.20 -1.75 1 -1.75 0.80 0 1 0.35 1 1.75 0 1.40 -0.20 1.75 -1 1.75 -0.80 0 -1 -0.35 -1 -1.75z"/>
  <path d="M569.60 281.20 c-0.60 -3.75 -1.55 -6.55 -1.60 -4.55 0 0.70 -0.50 0.85 -3.30 0.85 -2.80 0 -3.55 -0.20 -4.80 -1.25 -1.50 -1.25 -5.70 -2.75 -7.75 -2.75 -1.65 0 -6.95 -2.80 -9.75 -5.10 -1.85 -1.50 -2.40 -2.35 -2.40 -3.40 0 -0.80 -0.25 -1.50 -0.55 -1.60 -0.45 -0.15 -0.45 -0.45 0 -1.25 0.30 -0.60 0.55 -2.55 0.55 -4.30 0 -2.80 -0.20 -3.55 -1.60 -5.65 -3.20 -4.75 -8.50 -6.10 -12.95 -3.30 -1.20 0.80 -2.50 2.05 -2.90 2.75 -1 1.85 -1.55 1.70 -1.55 -0.40 0 -1.45 0.20 -1.75 1.15 -1.80 0.60 0 0.85 -0.15 0.55 -0.25 -0.50 -0.20 -0.45 -58 0.10 -60.55 0.10 -0.65 0.60 -1.15 1 -1.15 0.55 0 0.70 -0.25 0.45 -0.85 -0.45 -1.30 -1.25 -5.55 -1.25 -6.95 0 -0.70 0.30 -1.20 0.70 -1.20 0.50 0 0.95 1 1.30 2.90 1.30 6.35 7.40 22.90 12.40 33.65 2.80 6.05 8.85 16.75 14.75 26.20 9 14.40 11.40 18.30 13.10 21.55 2.25 4.25 5.60 13.25 6.20 16.90 0.80 4.30 0.70 5.30 -0.35 5.30 -0.75 0 -1.05 -0.65 -1.50 -3.80z"/>
  <path d="M619.30 282.90 c-0.50 -1.90 -0.35 -2.40 0.70 -2.40 0.80 0 1 0.35 1 1.75 0 2 -1.20 2.45 -1.70 0.65z"/>
  <path d="M691 276 c0 -3.05 0.15 -4 0.70 -4 0.90 0 1.30 1.55 1.30 5.15 0 2.50 -0.10 2.85 -1 2.85 -0.90 0 -1 -0.35 -1 -4z"/>
  <path d="M618.80 275.90 c-0.50 -1.90 -0.35 -2.40 0.70 -2.40 0.80 0 1 0.35 1 1.75 0 2 -1.20 2.45 -1.70 0.65z"/>
  <path d="M527.50 268 c0 -0.90 0.35 -1 3.40 -1 2.80 0 3.70 -0.20 5.25 -1.25 l1.85 -1.30 0 1.55 c0 1.40 -0.15 1.50 -1.75 1.50 -1.20 0 -1.75 0.25 -1.75 0.75 0 0.60 -0.70 0.75 -3.50 0.75 -3.15 0 -3.50 -0.10 -3.50 -1z"/>
  <path d="M690.50 265.75 c0 -2.45 1.15 -3.20 1.70 -1.10 0.60 2.20 0.35 3.35 -0.70 3.35 -0.85 0 -1 -0.35 -1 -2.25z"/>
  <path d="M689.80 259.15 c-0.55 -5 -2.55 -14.50 -4.70 -22.15 -2.20 -7.60 -1.35 -6.90 -7.40 -6.20 -2.30 0.25 -3.70 0.10 -5.50 -0.50 -1.30 -0.45 -3.30 -0.80 -4.50 -0.80 -1.15 0 -2.90 -0.35 -3.90 -0.75 -1.20 -0.50 -4.30 -0.90 -9.20 -1.05 -4.70 -0.20 -7.75 -0.55 -8.40 -0.95 -0.60 -0.40 -1.90 -0.85 -2.90 -1 -1 -0.20 -1.95 -0.55 -2.10 -0.80 -0.15 -0.25 -0.85 -0.45 -1.60 -0.45 -0.75 0 -2.70 -0.60 -4.35 -1.25 -1.65 -0.70 -3.35 -1.25 -3.80 -1.25 -0.45 0 -1.35 -0.45 -2 -1.05 -0.65 -0.60 -1.70 -1.25 -2.35 -1.50 -1.55 -0.60 -4.60 -0.55 -4.60 0.05 0 0.30 -0.80 0.50 -1.80 0.50 -2.05 0 -3.60 -1.45 -8.05 -7.75 -1.55 -2.20 -4 -5.55 -5.40 -7.50 -1.45 -1.90 -3.40 -4.80 -4.40 -6.35 -1 -1.60 -3.15 -4.55 -4.70 -6.55 -1.60 -2 -3.70 -4.85 -4.65 -6.35 -0.95 -1.50 -2.65 -3.85 -3.85 -5.15 -1.15 -1.35 -3.15 -3.95 -4.40 -5.75 -3.70 -5.40 -5.70 -8.15 -7.25 -9.95 -0.80 -0.90 -2.65 -3.40 -4.05 -5.50 -1.55 -2.30 -2.70 -3.60 -2.85 -3.15 -0.15 0.35 -0.95 1.40 -1.85 2.30 -1.40 1.40 -2.05 1.65 -5.20 1.95 -2.55 0.25 -3.80 0.20 -4.30 -0.25 -0.45 -0.35 -0.95 -0.50 -1.10 -0.30 -0.20 0.20 -0.05 0.55 0.30 0.75 0.85 0.55 1.40 5.05 0.60 5.05 -0.30 0 -0.55 0.45 -0.55 1 0 0.65 0.35 1 1 1 0.80 0 1 0.35 1 1.75 0 1.55 0.15 1.75 1.25 1.75 0.90 0 1.25 0.25 1.25 1 0 0.55 0.35 1 0.75 1 0.40 0 0.75 0.30 0.75 0.70 0 0.40 0.25 0.80 0.55 0.90 0.30 0.10 0.45 0.95 0.35 1.90 l-0.15 1.75 -2.45 -3.25 c-2.95 -3.95 -17.55 -25.95 -21.55 -32.45 -1.55 -2.60 -4.10 -7 -5.60 -9.75 -1.55 -2.80 -3.25 -5.95 -3.85 -7.05 -3.25 -5.90 -6.85 -15.90 -7.85 -22.05 -0.35 -2.05 -0.85 -3.70 -1.05 -3.70 -0.20 0 -0.40 0.35 -0.40 0.80 0 1.75 -1.20 4.70 -1.90 4.70 -0.60 0 -0.65 -0.45 -0.40 -2.35 0.20 -1.35 0.50 -3.25 0.65 -4.30 0.15 -1 0.45 -2 0.70 -2.15 0.25 -0.15 0.45 -11.85 0.45 -27.10 0 -14.75 0.20 -28.65 0.45 -30.85 0.25 -2.20 0.30 -4.90 0.10 -6 -0.30 -1.90 -0.35 -1.80 -1 2.15 -0.60 3.55 -0.80 4.10 -1.65 4.10 -0.90 0 -1 -0.20 -0.70 -1.60 0.30 -1.50 2.30 -12.95 2.30 -13.25 0 -0.10 0.30 -0.15 0.70 -0.15 0.75 0 1.60 2.80 2.10 7 0.15 1.50 0.65 4.20 1 6 0.40 1.80 0.95 4.25 1.20 5.50 0.90 4.30 3.65 12.80 7.75 24 3.35 9.10 10.45 20.50 17.35 27.75 7.65 8.10 14.50 13.20 24.40 18.20 2.90 1.50 5.50 2.85 5.75 3.05 0.30 0.20 2.75 1.55 5.50 3.05 7.10 3.75 20.90 11.70 24.75 14.25 8.15 5.40 21.05 16.30 28.75 24.25 10.45 10.85 21.55 25.30 28.10 36.70 7.40 12.85 13.80 28 17.20 40.75 3.45 12.85 3.60 13.50 4.70 21.45 0.95 6.55 0.95 6.55 -0.20 6.55 -0.80 0 -1 -0.50 -1.25 -3.35z"/>
  <path d="M604.35 235.55 c-1.10 -1.90 -1.10 -2.05 0.40 -2.05 1.10 0 1.25 0.20 1.25 1.75 0 2.15 -0.50 2.20 -1.65 0.30z"/>
  <path d="M368.60 208.15 c1.75 -3.70 2.40 -4.05 2.40 -1.40 0 1.55 -0.15 1.75 -1.30 1.75 -0.70 0 -1.20 -0.15 -1.10 -0.35z"/>
  <path d="M584.40 205.15 c-0.40 -0.50 -1.90 -2.65 -3.30 -4.75 l-2.60 -3.90 1.50 0 c1.35 0 1.50 0.15 1.50 1.50 0 1.15 0.20 1.50 1 1.50 0.80 0 1 0.35 1 1.50 0 1.15 0.20 1.50 1 1.50 0.80 0 1 0.35 1 1.75 0 2 -0.05 2.05 -1.10 0.90z"/>
  <path d="M574.90 191.50 l-1.40 -1.75 1.30 -0.15 c1.65 -0.20 1.80 -0.05 1.60 1.95 l-0.15 1.70 -1.35 -1.75z"/>
  <path d="M571.15 186.15 c-0.80 -1.05 -2.20 -2.95 -3.10 -4.25 l-1.60 -2.40 1.55 0 c1.35 0 1.50 0.15 1.50 1.50 0 1.15 0.20 1.50 1 1.50 0.65 0 1 0.35 1 1 0 0.55 0.35 1 0.75 1 0.50 0 0.75 0.55 0.75 1.75 0 0.95 -0.10 1.75 -0.20 1.75 -0.10 0 -0.85 -0.85 -1.65 -1.85z"/>
  <path d="M520.50 180.40 c0 -1.50 0.65 -2.90 1.30 -2.90 0.45 0 0.70 0.60 0.70 1.75 0 1.40 -0.20 1.75 -1 1.75 -0.55 0 -1 -0.30 -1 -0.60z"/>
  <path d="M388 176 c1.55 -2.20 2 -2.25 2 -0.30 0 1.65 -0.10 1.80 -1.55 1.80 l-1.50 0 1.05 -1.50z"/>
  <path d="M392 171 c1.55 -2.20 2 -2.25 2 -0.30 0 1.65 -0.10 1.80 -1.55 1.80 l-1.50 0 1.05 -1.50z"/>
  <path d="M402.90 158.60 c0.60 -0.80 1.40 -1.75 1.85 -2.10 0.75 -0.60 0.80 -0.50 0.65 1.30 -0.15 1.80 -0.25 1.95 -1.85 2.10 l-1.65 0.15 1 -1.45z"/>
  <path d="M419 143.95 c0.95 -0.85 2.35 -1.95 3.15 -2.50 l1.35 -1 0 1.50 c0 1.30 -0.20 1.55 -1.25 1.55 -0.90 0 -1.25 0.25 -1.25 1 0 0.85 -0.35 1 -1.85 1 l-1.90 -0.05 1.75 -1.50z"/>
  <path d="M462.50 116.60 c0 -0.35 5.60 -3.60 6.20 -3.60 0.20 0 0.30 0.55 0.30 1.25 0 1 -0.30 1.35 -1.50 1.60 -0.80 0.15 -1.50 0.45 -1.50 0.70 0 0.25 -0.80 0.45 -1.75 0.45 -0.95 0 -1.75 -0.20 -1.75 -0.40z"/>
  <path d="M486.25 101.50 c0.15 -0.25 0.95 -0.95 1.75 -1.50 l1.50 -1.05 0 1.50 c0 1.45 -0.15 1.55 -1.80 1.55 -1 0 -1.65 -0.20 -1.45 -0.50z"/>
  <path d="M494.35 93.80 c2.95 -3.75 6.25 -7.80 6.45 -7.80 0.10 0 0.20 0.80 0.20 1.75 0 1.20 -0.25 1.75 -0.75 1.75 -0.40 0 -0.75 0.45 -0.75 1 0 0.80 -0.35 1 -1.50 1 -1.40 0 -1.50 0.15 -1.50 1.75 0 1.60 -0.10 1.75 -1.55 1.75 l-1.55 0 0.95 -1.20z"/>
  <path d="M503.50 81.20 c0 -0.60 1.70 -3.20 2.10 -3.20 0.20 0 0.40 0.80 0.40 1.75 0 1.55 -0.15 1.75 -1.25 1.75 -0.70 0 -1.25 -0.15 -1.25 -0.30z"/>
  <path d="M510.65 67.40 c0.95 -2.30 1.85 -2.40 1.85 -0.20 0 1.60 -0.15 1.80 -1.25 1.80 -1.20 0 -1.25 -0.05 -0.60 -1.60z"/>
  <path d="M514.15 58.75 c1.15 -3.55 2.35 -4.35 2.35 -1.50 0 0.95 -0.20 1.75 -0.50 1.75 -0.25 0 -0.50 0.70 -0.50 1.50 0 1.25 -0.20 1.50 -1.20 1.50 l-1.20 0 1.05 -3.25z"/>
  <path d="M516.50 50.40 c0 -1.50 0.65 -2.90 1.30 -2.90 0.45 0 0.70 0.60 0.70 1.75 0 1.40 -0.20 1.75 -1 1.75 -0.55 0 -1 -0.30 -1 -0.60z"/>
 </g>
 <g fill="#03b459">
  <path d="M515.40 452.65 c-1.80 -0.45 -1 -1.65 1.10 -1.65 1.65 0 2 0.15 2 1 0 1 -1 1.20 -3.10 0.65z"/>
  <path d="M529.50 452 c0 -0.90 0.35 -1 2.75 -1 2 0 2.75 0.20 2.75 0.70 0 0.80 -1.50 1.30 -3.85 1.30 -1.30 0 -1.65 -0.20 -1.65 -1z"/>
  <path d="M508.40 452.15 c-1.80 -0.45 -1 -1.65 1.10 -1.65 1.65 0 2 0.15 2 1 0 1 -1 1.20 -3.10 0.65z"/>
  <path d="M536.50 451.50 c0 -0.85 0.35 -1 2.25 -1 2.45 0 3.20 1.15 1.15 1.70 -2.25 0.60 -3.40 0.35 -3.40 -0.70z"/>
  <path d="M498 450.95 c-8.40 -1.30 -13.05 -2.25 -20.50 -4.25 -7.05 -1.90 -8.50 -2.45 -8.50 -3.20 0 -0.90 2.60 -0.55 9 1.25 7.55 2.15 16.45 4 23.40 4.80 4.35 0.55 5.10 0.80 5.10 1.55 0 1.10 -0.35 1.10 -8.50 -0.15z"/>
  <path d="M542 451.10 c0 -0.70 1.10 -1 7.65 -2 8.90 -1.30 8.85 -1.30 8.85 -0.40 0 0.80 -0.25 0.85 -8.90 2.30 -7.50 1.20 -7.60 1.20 -7.60 0.10z"/>
  <path d="M559 448.10 c0 -0.70 0.65 -1.05 2.55 -1.50 3.35 -0.80 4.95 -0.75 4.95 0.10 0 0.40 -1.20 1 -3.25 1.50 -4.05 1 -4.25 1 -4.25 -0.10z"/>
  <path d="M571.50 444.70 c0 -1.05 0.25 -1.20 1.75 -1.20 1.10 0 1.75 0.25 1.75 0.65 0 0.40 -0.80 0.90 -1.75 1.20 -1.65 0.55 -1.75 0.50 -1.75 -0.65z"/>
  <path d="M463.15 442 c-2.80 -1.05 -5.35 -2.05 -5.65 -2.25 -1.05 -0.65 -0.45 -1.25 1.25 -1.25 0.95 0 1.75 0.25 1.75 0.50 0 0.30 0.55 0.50 1.25 0.50 0.70 0 1.25 0.25 1.25 0.50 0 0.30 0.55 0.50 1.25 0.50 0.70 0 1.25 0.25 1.25 0.50 0 0.30 0.70 0.50 1.50 0.50 1.25 0 1.50 0.20 1.50 1.25 0 0.70 -0.05 1.25 -0.10 1.25 -0.10 0 -2.45 -0.90 -5.25 -2z"/>
  <path d="M577.50 442.80 c0 -0.90 0.45 -1.25 1.95 -1.70 5.05 -1.55 6.30 0.15 1.30 1.75 l-3.25 1.05 0 -1.10z"/>
  <path d="M584.50 440.30 c0 -1.30 0.80 -1.80 3.05 -1.80 0.90 0 1.45 -0.25 1.45 -0.70 0 -0.85 1.10 -1.30 3.05 -1.30 0.85 0 1.45 -0.25 1.45 -0.65 0 -0.90 4.15 -2.85 6 -2.85 1.10 0 1.50 -0.25 1.50 -0.90 0 -1 1.90 -2.10 3.50 -2.10 0.55 0 1 -0.30 1 -0.70 0 -0.40 0.80 -1 1.75 -1.35 0.95 -0.35 1.75 -0.85 1.75 -1.05 0 -0.20 0.55 -0.40 1.25 -0.40 0.80 0 1.25 -0.30 1.25 -0.75 0 -0.40 0.35 -0.75 0.75 -0.75 0.40 0 0.75 -0.20 0.75 -0.50 0 -0.25 0.55 -0.50 1.25 -0.50 0.80 0 1.25 -0.30 1.25 -0.75 0 -0.40 0.35 -0.75 0.75 -0.75 0.40 0 0.75 -0.20 0.75 -0.50 0 -0.25 0.35 -0.50 0.75 -0.50 0.40 0 0.75 -0.20 0.75 -0.50 0 -0.25 0.35 -0.50 0.75 -0.50 0.40 0 0.75 -0.20 0.75 -0.50 0 -0.25 0.45 -0.50 1 -0.50 0.55 0 1 -0.35 1 -0.75 0 -0.40 0.40 -0.75 0.95 -0.75 0.50 0 1.05 -0.45 1.20 -1 0.15 -0.70 0.70 -1 1.55 -1 0.95 0 1.30 -0.25 1.30 -1 0 -0.75 0.35 -1 1.45 -1 1.25 0 1.50 -0.20 1.65 -1.35 0.10 -1.10 0.45 -1.45 1.55 -1.55 0.90 -0.10 1.35 -0.45 1.35 -1.05 0 -1.35 1.25 -2.15 3.10 -1.95 1.65 0.15 1.60 0.20 -4.35 5.15 -8.40 7.05 -9.25 7.70 -16.25 12.10 -10.20 6.45 -18.35 10.75 -29.35 15.45 -1.60 0.70 -1.65 0.70 -1.65 -0.50z"/>
  <path d="M450.15 436.50 c-2.55 -1.15 -2.75 -2 -0.50 -2 2.10 0 3 0.60 2.75 1.90 l-0.15 1.05 -2.10 -0.95z"/>
  <path d="M436.40 429.35 c-2.45 -1.40 -4.40 -2.75 -4.40 -2.95 0 -0.20 0.80 -0.40 1.75 -0.40 1.20 0 1.75 0.25 1.75 0.75 0 0.45 0.45 0.75 1.25 0.75 0.90 0 1.25 0.25 1.25 1 0 0.80 0.35 1 1.75 1 1.55 0 1.75 0.15 1.75 1.25 0 0.70 -0.15 1.25 -0.35 1.25 -0.25 -0.05 -2.35 -1.20 -4.75 -2.65z"/>
  <path d="M427.65 423.75 l-1.40 -1.20 1.90 -0.05 c1.65 0 1.85 0.15 1.85 1.25 0 1.55 -0.55 1.60 -2.35 0z"/>
  <path d="M419.50 418.05 c-2.90 -2.20 -6.05 -4.65 -7 -5.50 l-1.75 -1.50 1.90 -0.05 c1.50 0 1.85 0.15 1.85 1 0 0.75 0.35 1 1.25 1 0.90 0 1.25 0.25 1.25 1 0 0.75 0.35 1 1.25 1 0.80 0 1.25 0.30 1.25 0.75 0 0.40 0.45 0.75 1 0.75 0.75 0 1 0.35 1 1.25 0 1.10 0.20 1.25 1.75 1.25 1.60 0 1.75 0.10 1.75 1.50 0 0.85 -0.05 1.50 -0.10 1.50 -0.10 0 -2.50 -1.80 -5.40 -3.95z"/>
  <path d="M407.75 408.30 l-2 -1.75 1.90 -0.05 c2 0 2.55 0.60 2.25 2.50 -0.15 1 -0.25 1 -2.15 -0.70z"/>
  <path d="M639 405.15 c0 -2.05 3.35 -5.30 5.20 -5.05 l1.35 0.15 -1.80 2.10 c-1 1.15 -2.45 2.60 -3.30 3.15 l-1.45 1.05 0 -1.40z"/>
  <path d="M400.60 401.25 l-1.65 -2 1.35 -0.15 c1.75 -0.25 2.30 0.40 2.10 2.45 l-0.15 1.70 -1.65 -2z"/>
  <path d="M646.50 397.40 c0 -1.70 1.20 -3.40 2.40 -3.40 0.35 0 0.60 -0.45 0.60 -1.05 0 -0.60 0.40 -1.15 1 -1.30 0.55 -0.15 1 -0.70 1 -1.25 0 -0.55 0.45 -1.10 1 -1.25 0.55 -0.15 1 -0.70 1 -1.20 0 -0.55 0.25 -0.95 0.50 -0.95 0.30 0 0.50 -0.35 0.50 -0.80 0 -0.45 0.45 -0.90 1 -1.05 0.55 -0.15 1 -0.70 1 -1.25 0 -0.55 0.45 -1.10 1 -1.25 0.55 -0.15 1 -0.70 1 -1.20 0 -0.55 0.35 -0.95 0.75 -0.95 0.40 0 0.75 -0.45 0.75 -1 0 -0.55 0.35 -1 0.75 -1 0.40 0 0.75 -0.45 0.75 -1 0 -0.55 0.25 -1 0.50 -1 0.30 0 0.50 -0.35 0.50 -0.75 0 -0.45 0.45 -0.75 1.25 -0.75 0.70 0 1.25 0.25 1.25 0.50 0 0.90 -15.75 21.35 -17.70 22.95 -0.70 0.60 -0.80 0.50 -0.80 -1.05z"/>
  <path d="M395.20 395.15 c-3.65 -4.45 -3.50 -4.15 -1.75 -4.15 1.40 0 1.55 0.15 1.55 1.50 0 1.25 0.20 1.50 1.25 1.50 1.10 0 1.25 0.20 1.25 1.75 0 0.95 -0.10 1.75 -0.15 1.75 -0.10 0 -1.05 -1.05 -2.15 -2.35z"/>
  <path d="M388.45 386.90 c-0.90 -1.20 -1.85 -2.45 -2.10 -2.75 -0.35 -0.50 -0.10 -0.65 1.10 -0.65 1.20 0 1.55 0.20 1.55 1 0 0.55 0.35 1 0.75 1 0.50 0 0.75 0.55 0.75 1.75 0 0.95 -0.10 1.75 -0.20 1.75 -0.10 0 -0.95 -0.95 -1.85 -2.10z"/>
  <path d="M516 386.50 c0 -1.05 1.15 -1.30 3.40 -0.70 2.05 0.55 1.30 1.70 -1.15 1.70 -1.90 0 -2.25 -0.15 -2.25 -1z"/>
  <path d="M528.50 386.75 c0 -0.80 0.85 -1 7.75 -1.75 7.40 -0.90 17.90 -3.70 24.90 -6.70 l1.85 -0.80 0 1.25 c0 1.10 -0.20 1.25 -1.75 1.25 -1.10 0 -1.75 0.25 -1.75 0.65 0 0.75 -6.05 2.85 -8.15 2.85 -0.75 0 -1.35 0.20 -1.35 0.45 0 0.80 -15.75 3.55 -20.35 3.55 -0.70 0 -1.15 -0.30 -1.15 -0.75z"/>
  <path d="M505.50 386 c-6.25 -1.15 -13.50 -3 -13.50 -3.50 0 -0.20 -0.95 -0.50 -2.10 -0.65 -1.20 -0.15 -2.20 -0.55 -2.30 -0.80 -0.10 -0.30 -0.75 -0.55 -1.40 -0.55 -0.75 0 -1.20 -0.30 -1.20 -0.75 0 -0.50 -0.50 -0.75 -1.50 -0.75 -2.30 0 -4 -1 -4 -2.35 0 -1.30 -0.45 -1.40 6 1.45 5.90 2.65 15.20 5.30 22.50 6.40 2.05 0.30 4.50 0.65 5.40 0.80 0.95 0.15 1.60 0.55 1.60 0.95 0 1 -2.80 0.90 -9.50 -0.25z"/>
  <path d="M382.40 378.50 l-1.40 -1.75 1.30 -0.15 c1.65 -0.20 1.80 -0.05 1.60 1.95 l-0.15 1.70 -1.35 -1.75z"/>
  <path d="M376.85 369.80 c-1.85 -3.15 -3.35 -5.85 -3.35 -6 0 -0.15 0.55 -0.30 1.25 -0.30 1.10 0 1.25 0.20 1.25 1.75 0 1.40 0.20 1.75 1 1.75 0.75 0 1 0.35 1 1.25 0 0.80 0.30 1.25 0.75 1.25 0.45 0 0.75 0.45 0.75 1.25 0 0.80 0.30 1.25 0.75 1.25 0.50 0 0.75 0.55 0.75 1.75 0 0.95 -0.20 1.75 -0.40 1.75 -0.20 0 -1.90 -2.55 -3.75 -5.70z"/>
  <path d="M568.50 375.10 c0 -0.35 5.10 -3.60 5.70 -3.60 0.15 0 0.30 0.55 0.30 1.25 0 1 -0.25 1.25 -1.25 1.25 -0.80 0 -1.25 0.30 -1.25 0.75 0 0.50 -0.55 0.75 -1.75 0.75 -0.95 0 -1.75 -0.15 -1.75 -0.40z"/>
  <path d="M473.15 374.65 c-0.35 -0.10 -0.65 -0.55 -0.65 -0.95 0 -0.40 -0.50 -0.70 -1.25 -0.70 -0.80 0 -1.25 -0.30 -1.25 -0.75 0 -0.45 -0.45 -0.75 -1.25 -0.75 -0.70 0 -1.25 -0.20 -1.25 -0.50 0 -0.25 -0.35 -0.50 -0.75 -0.50 -0.40 0 -0.75 -0.20 -0.75 -0.50 0 -0.25 -0.35 -0.50 -0.75 -0.50 -0.40 0 -0.75 -0.35 -0.75 -0.75 0 -0.40 -0.45 -0.75 -1 -0.75 -0.65 0 -1 -0.35 -1 -0.95 0 -0.70 -0.40 -1.05 -1.35 -1.15 -1.10 -0.10 -1.45 -0.45 -1.55 -1.50 -0.15 -1.15 -0.40 -1.40 -1.50 -1.40 -2.10 0 -7.60 -5.70 -7.60 -7.85 0 -1.40 -0.15 -1.60 -1.60 -1.75 -1.25 -0.10 -1.70 -0.40 -1.80 -1.25 -0.10 -0.65 -0.50 -1.15 -0.90 -1.15 -0.40 0 -0.70 -0.45 -0.70 -1 0 -0.55 -0.35 -1 -0.75 -1 -0.40 0 -0.75 -0.45 -0.75 -1 0 -0.55 -0.35 -1 -0.75 -1 -0.40 0 -0.75 -0.35 -0.75 -0.75 0 -0.40 -0.20 -0.75 -0.50 -0.75 -0.25 0 -0.50 -0.35 -0.50 -0.75 0 -0.40 -0.20 -0.75 -0.50 -0.75 -0.25 0 -0.50 -0.35 -0.50 -0.75 0 -0.40 -0.20 -0.75 -0.50 -0.75 -0.25 0 -0.50 -0.55 -0.50 -1.25 0 -0.80 -0.30 -1.25 -0.75 -1.25 -0.40 0 -0.75 -0.45 -0.75 -1 0 -0.55 -0.20 -1 -0.50 -1 -0.25 0 -0.50 -0.55 -0.50 -1.25 0 -0.75 -0.30 -1.25 -0.70 -1.25 -0.85 0 -1.30 -1.10 -1.30 -3.05 0 -2.70 0.45 -2.20 4 4.30 4.30 7.80 10.20 15.35 17.60 22.55 6 5.80 10.60 9.30 16.80 12.85 1.95 1.10 3.60 2.25 3.60 2.45 0 0.45 -2.85 0.50 -3.85 0.05z"/>
  <path d="M666 371.25 c0 -0.95 0.20 -1.75 0.45 -1.75 0.25 0 0.60 -0.55 0.75 -1.25 0.20 -0.70 0.65 -1.25 1.05 -1.25 0.45 0 0.75 -0.50 0.75 -1.20 0 -0.70 0.35 -1.55 0.75 -2 0.40 -0.40 0.75 -1.10 0.75 -1.50 0 -0.50 0.45 -0.80 1.25 -0.80 0.70 0 1.25 0.10 1.25 0.25 0 0.95 -6.05 11.25 -6.60 11.25 -0.20 0 -0.40 -0.80 -0.40 -1.75z"/>
  <path d="M575.90 370.35 c0.30 -0.35 1.60 -1.40 2.85 -2.30 l2.25 -1.60 0 1.50 c0 1.20 -0.20 1.55 -1 1.55 -0.55 0 -1 0.35 -1 0.75 0 0.55 -0.55 0.75 -1.80 0.75 -1.45 0 -1.70 -0.15 -1.30 -0.65z"/>
  <path d="M583.25 364.50 c0.15 -0.25 0.95 -0.95 1.75 -1.50 l1.50 -1.05 0 1.50 c0 1.45 -0.15 1.55 -1.80 1.55 -1 0 -1.65 -0.20 -1.45 -0.50z"/>
  <path d="M591.40 356.65 c0.55 -0.80 1.45 -1.85 2.05 -2.35 1.05 -0.95 1.05 -0.95 1.05 0.75 0 2.15 -0.75 2.95 -2.65 2.95 l-1.40 0 0.95 -1.35z"/>
  <path d="M675.50 353.60 c0 -2 0.45 -3.10 1.30 -3.10 0.45 0 0.70 -0.60 0.70 -1.70 0 -0.95 0.35 -2.05 0.75 -2.50 0.40 -0.40 0.75 -1.20 0.75 -1.75 0 -0.60 0.25 -1.05 0.50 -1.05 0.30 0 0.50 -0.55 0.50 -1.25 0 -0.70 0.15 -1.25 0.40 -1.25 0.20 0 0.60 -1 0.90 -2.25 l0.50 -2.25 -2 -0.05 c-1.15 0 -3.10 0 -4.45 0.05 -1.75 0.05 -3 -0.25 -4.65 -1.20 -1.30 -0.70 -2.90 -1.30 -3.65 -1.30 -0.70 0 -2.40 -0.35 -3.75 -0.75 -2.20 -0.70 -2.85 -0.65 -6.25 0.05 -2.90 0.60 -5.15 0.70 -9.70 0.45 -6.95 -0.40 -7.95 -0.95 -9.10 -4.85 -1.35 -4.60 -1.05 -9.05 1.30 -17.65 1.35 -5.05 1.35 -5.05 -1.65 -5.40 -1.50 -0.20 -2.85 -0.10 -3.20 0.20 -0.35 0.30 -3.45 0.45 -7.85 0.35 l-7.20 -0.15 -0.60 3.25 c-0.90 4.95 -2.60 11 -3.10 11 -0.25 0 -0.45 0.70 -0.45 1.50 0 1.25 -0.20 1.50 -1.20 1.50 l-1.20 0 1.45 -4.25 c5.35 -16.15 6.35 -35.05 2.70 -53 -2.15 -10.60 -5.50 -18.75 -12.65 -30.50 -5.45 -9 -20.65 -31.65 -31.75 -47.30 -9.60 -13.55 -12.05 -17.10 -18.55 -26.80 -13.60 -20.35 -22.40 -35.60 -25.50 -44.20 -1.40 -3.95 -1.50 -5.40 -0.10 -1.70 0.50 1.25 1.15 2.55 1.50 2.90 0.30 0.30 1.10 1.85 1.70 3.35 1.60 3.80 2.20 5.05 3.15 6.50 0.40 0.70 1.85 3.30 3.20 5.75 2.35 4.50 5.05 8.80 6.95 11.35 0.60 0.70 1.55 1.95 2.20 2.80 0.60 0.80 1.65 2 2.30 2.65 0.65 0.65 1.35 1.75 1.55 2.40 0.20 0.65 1.50 2.85 2.95 4.90 1.40 2 2.75 4.15 3.05 4.65 0.65 1.30 1.25 1.30 0.90 0 -0.15 -0.55 -0.45 -1 -0.70 -1 -0.25 0 -0.45 -0.45 -0.45 -1 0 -0.55 -0.20 -1 -0.50 -1 -0.25 0 -0.50 -0.45 -0.50 -0.95 0 -0.55 -0.30 -1.05 -0.60 -1.20 -0.35 -0.10 -0.50 -0.40 -0.30 -0.60 0.20 -0.20 0.70 -0.10 1.10 0.20 0.45 0.40 0.80 0.40 1 0.10 0.30 -0.50 3.10 0.15 3.95 0.95 0.25 0.20 1.45 0.25 2.75 0.10 1.75 -0.20 2.70 -0.65 4 -1.95 1.55 -1.60 1.70 -1.95 1.45 -3.95 -0.10 -1.20 -0.05 -2.20 0.15 -2.20 0.50 0 4 4.25 6.45 7.90 1.15 1.70 2.75 3.90 3.55 4.80 1.55 1.75 3.55 4.50 7.25 9.90 1.25 1.80 3.25 4.40 4.40 5.75 1.20 1.30 2.90 3.65 3.85 5.15 0.95 1.50 3.05 4.35 4.65 6.35 1.55 2 3.70 4.95 4.70 6.55 1 1.55 2.95 4.45 4.40 6.35 1.40 1.95 3.85 5.30 5.40 7.50 3.60 5.05 6.45 8.20 6.75 7.35 0.10 -0.40 1.30 -0.60 3.35 -0.60 3.55 0 4.95 0.40 6.70 1.95 0.65 0.60 1.55 1.05 2 1.05 0.45 0 2.15 0.55 3.80 1.25 1.65 0.65 3.60 1.25 4.35 1.25 0.75 0 1.45 0.20 1.60 0.45 0.15 0.25 1.10 0.60 2.10 0.80 1 0.15 2.35 0.65 2.95 1.05 0.65 0.40 2.05 0.65 3.30 0.60 3.70 -0.20 12.60 0.65 14.40 1.40 0.90 0.40 2.65 0.70 3.80 0.70 1.15 0 3.10 0.35 4.30 0.75 2.25 0.80 5.65 0.65 6.25 -0.30 0.15 -0.25 0.80 -0.30 1.40 -0.15 1.15 0.25 1.15 0.25 0.65 -1.90 -0.25 -1.20 -0.65 -2.60 -0.85 -3.15 -0.25 -0.55 -0.55 -1.45 -0.65 -2 -0.55 -2.10 -2.50 -7.05 -3.90 -9.80 -0.80 -1.65 -1.95 -4.25 -2.55 -5.80 -0.55 -1.60 -1.55 -3.70 -2.20 -4.70 -0.60 -0.95 -2 -3.55 -3.15 -5.75 -1.10 -2.15 -2.90 -5.20 -4 -6.70 -1.10 -1.50 -2.85 -4.10 -3.90 -5.75 -3.55 -5.70 -7.75 -10.90 -19.50 -24.30 -3.10 -3.50 -5.85 -6.45 -6.05 -6.55 -0.25 -0.05 -1.95 -1.50 -3.85 -3.15 -9.40 -8.30 -13.05 -11.15 -19.75 -15.55 -2.90 -1.90 -8.25 -5.10 -11.85 -7.15 -7.40 -4.20 -11 -6.75 -4.90 -3.50 15.45 8.25 22.35 13 36.65 25.35 15 12.95 31.20 33.35 40.95 51.60 8.80 16.55 16.05 38.25 18.65 56.15 0.55 3.65 1.20 11.45 1.45 17.35 0.60 13.05 0.60 11.15 0 20.50 -0.45 7.35 -0.75 9.85 -2 17.50 -1.80 11 -6.60 27.35 -11.10 37.70 -2.65 6.10 -3.85 7.60 -3.85 4.90z"/>
  <path d="M367.50 351.90 l-0.95 -2.15 1.05 -0.15 c1.30 -0.25 1.90 0.65 1.90 2.80 0 2.20 -0.85 2 -2 -0.50z"/>
  <path d="M600.50 345.90 c0.90 -1.20 2.10 -2.90 2.65 -3.75 1.40 -2.10 1.85 -2.05 1.85 0.10 0 1.20 -0.25 1.75 -0.75 1.75 -0.40 0 -0.75 0.45 -0.75 1 0 0.55 -0.35 1 -0.75 1 -0.40 0 -0.75 0.45 -0.75 1 0 0.80 -0.35 1 -1.55 1 l-1.55 0 1.60 -2.10z"/>
  <path d="M364.80 345.10 c-1.05 -1.70 -6.80 -19.55 -6.80 -21.05 0 -0.30 0.40 -0.55 0.90 -0.55 0.75 0 1.20 1 2.25 4.75 0.75 2.60 1.35 5.20 1.35 5.75 0 0.55 0.20 1 0.40 1 0.50 0 1.60 3 1.60 4.35 0 0.60 0.25 1.15 0.55 1.25 0.75 0.25 1.25 4.90 0.55 4.90 -0.30 0 -0.65 -0.20 -0.80 -0.40z"/>
  <path d="M515.75 340.65 c-5.65 -0.75 -14.25 -3.55 -14.25 -4.65 0 -0.60 3.35 -0.70 3.60 -0.10 0.20 0.55 10.75 3.10 12.80 3.10 1.25 0 1.60 0.20 1.60 1 0 1.05 -0.40 1.10 -3.75 0.65z"/>
  <path d="M525.15 340.65 l-2.10 -0.20 -0.40 -2.85 c-0.20 -1.55 -0.40 -18.55 -0.40 -37.70 0 -27.60 -0.15 -34.90 -0.60 -34.90 -0.35 0 -0.65 -0.35 -0.65 -0.75 0 -0.40 -0.20 -0.75 -0.50 -0.75 -0.25 0 -0.50 -0.80 -0.50 -1.75 0 -0.95 -0.20 -1.75 -0.50 -1.75 -1.20 0 0.15 -9.45 1.45 -9.90 0.30 -0.10 0.70 -1.05 0.85 -2.15 0.20 -1.15 0.60 -1.95 1 -1.95 0.40 0 0.70 0.30 0.70 0.70 0 1.05 1.05 1.20 2.95 0.45 5.15 -2.15 9.85 0.10 14.25 6.75 1.40 2 1.45 2.30 1.20 6.60 l-0.30 4.50 2.35 1.95 c2.75 2.30 8.05 5.05 9.70 5.05 2.05 0 6.25 1.50 7.75 2.75 1.95 1.65 5.10 1.75 5.10 0.20 0 -0.55 0.25 -0.85 0.50 -0.70 0.30 0.20 0.50 -0.30 0.50 -1.20 0 -0.80 -0.20 -1.65 -0.50 -1.80 -0.25 -0.15 -0.50 -0.65 -0.50 -1.05 0 -1.75 -4.55 -10.25 -10 -18.70 -10.80 -16.75 -20.20 -34.50 -26 -49 -1.65 -4.10 -3 -7.55 -3 -7.70 0 -0.85 -2.15 -5.80 -2.55 -5.80 -0.25 0 -0.55 0.55 -0.75 1.25 -0.15 0.70 -0.65 1.25 -1.10 1.25 -0.65 0 -0.70 -0.75 -0.45 -5.60 0.35 -6.10 0 -6.20 -1.40 -0.50 -0.55 1.95 -1.10 3.60 -1.35 3.60 -0.20 0 -0.40 0.60 -0.40 1.35 0 0.70 -0.40 2.50 -0.85 4 -0.60 1.90 -1.10 2.65 -1.75 2.65 -1.15 0 -1.15 -0.65 0.10 -4.25 1.30 -3.75 3.75 -13.15 4.55 -17.15 0.35 -1.85 0.80 -3.05 1.15 -2.95 0.30 0.10 0.95 2.20 1.40 4.65 2.40 12.60 7.10 25.65 15 41.40 4.40 8.85 6.65 12.70 14.60 25.30 9.20 14.65 12.50 20.55 14.75 26.50 5.40 14.30 4.60 30.95 -2 44.15 -4.10 8.10 -11.45 15.75 -19.45 20.25 -5.55 3.15 -15.85 6.40 -19 6 -0.40 -0.05 -1.70 -0.15 -2.85 -0.25z m9.85 -74.25 c3.15 -1.65 5.10 -4.30 5.40 -7.30 0.30 -3.30 -0.60 -5.80 -3.10 -8.50 -3.75 -4.10 -8.10 -4.80 -11.90 -1.95 -6.45 4.85 -5.80 14.35 1.25 17.60 3.25 1.55 5.50 1.55 8.35 0.15z"/>
  <path d="M606 338.20 c0 -0.65 2.20 -4.20 2.60 -4.20 0.45 0 0.55 2.55 0.10 3.70 -0.30 0.75 -2.70 1.20 -2.70 0.50z"/>
  <path d="M493.30 331.75 c-1.25 -1 -2.30 -1.90 -2.30 -2 0 -0.15 0.80 -0.25 1.75 -0.25 1.20 0 1.75 0.25 1.75 0.75 0 0.40 0.45 0.75 1 0.75 0.75 0 1 0.35 1 1.25 0 1.65 -0.40 1.60 -3.20 -0.50z"/>
  <path d="M432.60 329.25 c-0.35 -0.70 -0.60 -1.75 -0.60 -2.25 0 -0.55 -0.20 -1 -0.50 -1 -0.25 0 -0.50 -0.60 -0.50 -1.30 0 -0.70 -0.35 -1.60 -0.75 -2 -0.40 -0.45 -0.75 -1.45 -0.75 -2.25 0 -0.80 -0.20 -1.45 -0.40 -1.45 -0.70 0 -3.60 -13.40 -3.60 -16.60 0 -1.85 1.35 -1.85 1.70 0 0.15 0.75 0.50 2.80 0.80 4.60 0.85 5.65 4.05 16.40 5.95 19.90 0.30 0.55 0.75 1.60 1.05 2.30 0.40 1.15 0.35 1.30 -0.70 1.30 -0.75 0 -1.35 -0.45 -1.70 -1.25z"/>
  <path d="M611 328.20 c1.30 -3.45 2.50 -4.25 2.50 -1.75 0 2.20 -0.50 3.05 -1.80 3.05 -1.05 0 -1.15 -0.15 -0.70 -1.30z"/>
  <path d="M487 326 c-1.80 -1.80 -3.80 -4 -4.40 -4.90 l-1.15 -1.60 1.50 0 c1.40 0 1.55 0.15 1.55 1.45 0 1.25 0.20 1.50 1.40 1.65 1.05 0.10 1.40 0.45 1.50 1.55 0.15 1.05 0.45 1.35 1.40 1.35 1.35 0 1.85 0.80 1.60 2.60 -0.15 1.05 -0.45 0.85 -3.40 -2.10z"/>
  <path d="M356.60 318.40 c-0.55 -2.15 -2.60 -13.25 -2.60 -14 0 -0.20 0.45 -0.40 1 -0.40 0.70 0 1 0.35 1 1.15 0 0.60 0.60 3.80 1.25 7.10 0.70 3.30 1.25 6.50 1.25 7.15 0 1.95 -1.35 1.20 -1.90 -1z"/>
  <path d="M478.90 315.40 c-1.95 -3.40 -4.40 -9.35 -4.40 -10.60 0 -0.45 0.40 -0.80 0.90 -0.80 1 0 2.10 2.70 2.10 5.20 0 0.75 0.30 1.30 0.65 1.30 0.80 0 1.85 2.05 1.85 3.50 0 0.55 0.35 1 0.75 1 0.50 0 0.75 0.55 0.75 1.75 0 0.95 -0.20 1.75 -0.40 1.75 -0.20 0 -1.20 -1.40 -2.20 -3.10z"/>
  <path d="M473.55 301 c-0.75 -3.45 -0.70 -4 0.40 -4 0.70 0 1 0.50 1.25 2.30 0.45 3.45 0.40 4.20 -0.40 4.20 -0.45 0 -0.90 -0.95 -1.25 -2.50z"/>
  <path d="M353.80 301.90 c-0.50 -1.90 -0.35 -2.40 0.70 -2.40 0.80 0 1 0.35 1 1.75 0 2 -1.20 2.45 -1.70 0.65z"/>
  <path d="M425 297.75 c0 -2.45 1.15 -3.20 1.70 -1.10 0.60 2.20 0.35 3.35 -0.70 3.35 -0.85 0 -1 -0.35 -1 -2.25z"/>
  <path d="M353.30 297.40 c-0.60 -2.25 -0.35 -3.40 0.70 -3.40 0.85 0 1 0.35 1 2.25 0 2.45 -1.15 3.20 -1.70 1.15z"/>
  <path d="M472.80 294.40 c-0.15 -0.65 -0.30 -2.50 -0.30 -4.15 0 -3.70 0.40 -5.25 1.30 -5.25 0.55 0 0.70 1.10 0.70 5.25 0 4.15 -0.15 5.25 -0.70 5.25 -0.35 0 -0.80 -0.50 -1 -1.10z"/>
  <path d="M424.50 287.25 c0 -5.90 0.05 -6.25 1 -6.25 0.95 0 1 0.35 1 6.25 0 5.90 -0.05 6.25 -1 6.25 -0.95 0 -1 -0.35 -1 -6.25z"/>
  <path d="M473.25 282.40 c1.05 -6.15 3.95 -14.90 5.15 -15.30 0.40 -0.10 0.60 0.40 0.60 1.60 0 1 -0.20 1.80 -0.50 1.80 -0.25 0 -0.50 0.40 -0.50 0.90 0 0.45 -0.55 2.55 -1.20 4.60 -0.65 2.05 -1.35 4.80 -1.55 6.15 -0.30 1.90 -0.55 2.35 -1.35 2.35 -0.90 0 -0.95 -0.20 -0.65 -2.10z"/>
  <path d="M425 276.75 c0 -1.40 0.20 -1.75 1 -1.75 1.05 0 1.20 0.50 0.70 2.40 -0.50 1.80 -1.70 1.35 -1.70 -0.65z"/>
  <path d="M425.50 273.05 c0 -3.85 4.60 -21.55 5.60 -21.55 0.20 0 0.40 -0.45 0.40 -0.95 0 -1.75 0.60 -2.55 1.80 -2.55 1.20 0 1.20 0 0.40 1.90 -2.35 5.30 -5.10 15.15 -6.40 22.75 -0.40 2.25 -1.80 2.60 -1.80 0.40z"/>
  <path d="M353 267.15 c0 -2.15 0.55 -3.65 1.30 -3.65 0.50 0 0.70 0.70 0.70 2.50 0 2.15 -0.15 2.50 -1 2.50 -0.75 0 -1 -0.35 -1 -1.35z"/>
  <path d="M479.50 264.20 c0 -0.60 1.70 -3.20 2.10 -3.20 0.20 0 0.40 0.80 0.40 1.75 0 1.55 -0.15 1.75 -1.25 1.75 -0.70 0 -1.25 -0.15 -1.25 -0.30z"/>
  <path d="M353.50 261.40 c0 -1.50 0.65 -2.90 1.30 -2.90 0.45 0 0.70 0.60 0.70 1.75 0 1.40 -0.20 1.75 -1 1.75 -0.55 0 -1 -0.30 -1 -0.60z"/>
  <path d="M483 258.20 c0 -0.60 1.70 -3.20 2.10 -3.20 0.20 0 0.40 0.80 0.40 1.75 0 1.55 -0.15 1.75 -1.25 1.75 -0.70 0 -1.25 -0.15 -1.25 -0.30z"/>
  <path d="M354 256.60 c0 -1.40 2.30 -12.90 3.40 -17.20 2.25 -8.50 3.75 -12.90 4.45 -12.90 0.35 0 0.65 0.55 0.65 1.30 0 1.75 -1.05 5.20 -1.60 5.20 -0.20 0 -0.40 0.50 -0.40 1.15 0 0.65 -0.80 4.25 -1.75 8 -0.95 3.75 -2 8.75 -2.35 11.10 -0.50 3.55 -0.75 4.25 -1.50 4.25 -0.55 0 -0.90 -0.35 -0.90 -0.90z"/>
  <path d="M489.50 248.20 c0 -0.60 1.70 -3.20 2.10 -3.20 0.20 0 0.40 0.80 0.40 1.75 0 1.55 -0.15 1.75 -1.25 1.75 -0.70 0 -1.25 -0.15 -1.25 -0.30z"/>
  <path d="M492 244.20 c0 -0.60 3.25 -5.70 3.60 -5.70 0.25 0 0.40 0.80 0.40 1.75 0 1.20 -0.25 1.75 -0.75 1.75 -0.45 0 -0.75 0.45 -0.75 1.25 0 1 -0.25 1.25 -1.25 1.25 -0.70 0 -1.25 -0.15 -1.25 -0.30z"/>
  <path d="M522 219.25 c0 -21.40 0 -21.75 1 -21.75 1 0 1 0.35 1 20.65 0 11.30 -0.15 21.10 -0.30 21.75 -0.20 0.60 -0.65 1.10 -1 1.10 -0.60 0 -0.70 -3.55 -0.70 -21.75z"/>
  <path d="M437.50 238.55 c0 -1.95 0.45 -3.05 1.30 -3.05 0.40 0 0.70 -0.50 0.70 -1.25 0 -1.05 0.25 -1.25 1.55 -1.25 l1.50 0 -0.95 1.40 c-0.55 0.75 -1.45 2.30 -2.05 3.50 -1.25 2.45 -2.05 2.70 -2.05 0.65z"/>
  <path d="M496.50 236.75 c0 -0.60 5.75 -10.25 6.10 -10.25 0.45 0 0.55 2.55 0.10 3.70 -0.15 0.45 -0.60 0.80 -1 0.80 -0.40 0 -0.70 0.45 -0.70 0.95 0 1.50 -0.55 2.55 -1.30 2.55 -0.40 0 -0.70 0.50 -0.70 1.25 0 1 -0.25 1.25 -1.25 1.25 -0.70 0 -1.25 -0.10 -1.25 -0.25z"/>
  <path d="M503 225.20 c0 -0.70 3.15 -6.20 3.55 -6.20 0.25 0 0.45 0.80 0.45 1.75 0 1.20 -0.25 1.75 -0.75 1.75 -0.50 0 -0.75 0.50 -0.75 1.50 0 1.25 -0.20 1.50 -1.25 1.50 -0.70 0 -1.25 -0.15 -1.25 -0.30z"/>
  <path d="M363.10 221.15 c1.95 -5.40 5.65 -13.30 6.30 -13.55 0.40 -0.10 0.60 0.35 0.60 1.35 0 1.90 -0.95 4.05 -1.85 4.05 -0.40 0 -0.65 0.60 -0.65 1.70 0 0.95 -0.35 2.05 -0.75 2.50 -0.40 0.40 -0.75 1.20 -0.75 1.75 0 0.60 -0.20 1.05 -0.45 1.05 -0.25 0 -0.55 0.90 -0.75 2 -0.25 1.70 -0.50 2 -1.55 2 l-1.25 0 1.10 -2.85z"/>
  <path d="M510.80 209.90 c3.90 -10.05 5.20 -12.30 5.20 -9.05 0 1.65 -1.50 6.15 -2.10 6.15 -0.20 0 -0.40 0.45 -0.40 0.95 0 1.70 -0.60 2.55 -1.80 2.55 -0.75 0 -1.10 -0.25 -0.90 -0.60z"/>
  <path d="M369.90 205.65 c1.50 -3.60 8.50 -15.80 12.75 -22.15 5.10 -7.60 14.90 -19.40 22.70 -27.25 13.30 -13.45 32.45 -27.15 52.40 -37.50 17.85 -9.30 23.90 -13 29.95 -18.45 5.75 -5.15 10.80 -11.10 14.55 -17.20 3.75 -6.10 10.15 -18.90 11.65 -23.35 1.95 -5.60 6.60 -25.45 7.50 -31.60 0.70 -4.95 1 -6.15 1.65 -6.15 0.65 0 0.90 0.95 1.25 5.10 0.80 9.20 0.30 16.90 -1.05 16.90 -0.60 0 -0.75 -0.95 -0.80 -4.60 -0.05 -4.15 -0.10 -4.40 -0.55 -2.65 -4.15 16.90 -5.10 20.55 -5.45 20.65 -0.25 0.10 -0.45 0.85 -0.45 1.65 0 0.80 -0.20 1.45 -0.50 1.45 -0.25 0 -0.50 0.60 -0.50 1.30 0 1.75 -2 6.20 -2.75 6.20 -0.70 0 -1 1.70 -1.45 8.50 -0.20 2.35 -0.55 4.95 -0.80 5.75 -0.25 0.85 -0.70 3.05 -1 4.95 -0.30 1.90 -1.05 4.70 -1.70 6.25 -0.65 1.55 -1.75 4.85 -2.45 7.30 -2.30 8.45 -5.65 16.30 -9.70 22.75 -5.70 9.15 -14.05 21.60 -20.35 30.40 -2.25 3.10 -4.55 6.35 -5.20 7.25 -0.65 0.85 -3.80 5.25 -7 9.75 -3.20 4.45 -6.85 9.50 -8.05 11.25 -1.25 1.70 -3.80 5.25 -5.75 7.85 -1.95 2.60 -3.90 5.25 -4.30 5.90 -0.80 1.25 -3.60 1.95 -5.70 1.40 -1.10 -0.30 -1.30 -0.60 -1.30 -2.30 0 -2.30 -0.25 -2.40 -1.80 -0.95 -1.10 1.05 -2.50 1.20 -16.30 1.65 -2.15 0.05 -2.40 0.15 -2.40 1.20 0 1.10 -0.15 1.15 -2.85 1 -2.80 -0.15 -2.90 -0.20 -3.05 -1.65 -0.15 -1.45 -0.20 -1.50 -2.60 -1.35 -1.60 0.15 -2.50 0 -2.50 -0.35 0 -0.30 -0.90 -0.55 -2.10 -0.55 -1.20 0 -2.45 -0.20 -2.85 -0.45 -0.95 -0.60 -4.05 0.40 -5.60 1.80 -2.35 2.15 -7.30 1.20 -9.10 -1.70 -0.20 -0.35 -1.20 -0.65 -2.10 -0.65 -1.55 0 -1.75 -0.15 -1.75 -1.25 0 -0.90 -0.25 -1.25 -1 -1.25 -0.55 0 -1 0.25 -1 0.50 0 0.30 -0.35 0.50 -0.75 0.50 -0.45 0 -0.75 0.45 -0.75 1.25 0 0.80 -0.30 1.25 -0.75 1.25 -0.45 0 -0.75 0.45 -0.75 1.25 0 0.90 -0.25 1.25 -1 1.25 -0.80 0 -1 0.35 -1 1.50 0 2.10 -1.50 5 -2.60 5 -0.70 0 -0.90 0.40 -0.90 1.75 0 1.55 -0.15 1.75 -1.25 1.75 -0.95 0 -1.15 -0.20 -0.85 -0.85z"/>
  <path d="M432.60 203.90 c0.15 -2.15 0.15 -2.15 2.30 -2.30 2.10 -0.15 2.10 -0.15 2.10 1.50 0 2.15 -0.75 2.90 -2.90 2.90 -1.65 0 -1.65 0 -1.50 -2.10z"/>
  <path d="M583.90 117.20 c-1.35 -0.65 -2.40 -1.35 -2.40 -1.45 0 -0.15 1.15 0.30 2.50 1 1.40 0.70 2.50 1.40 2.50 1.50 0 0.35 0.05 0.35 -2.60 -1.05z"/>
  <path d="M577.40 113.70 c-1.95 -1.05 -1.75 -1.40 0.25 -0.40 1.85 0.95 2.20 1.20 1.55 1.20 -0.25 -0.05 -1.05 -0.40 -1.80 -0.80z"/>
  <path d="M573.25 111.45 c-0.80 -0.50 -1.30 -0.95 -1.10 -0.95 0.55 0 3.35 1.45 3.35 1.75 0 0.45 -0.75 0.20 -2.25 -0.80z"/>
  <path d="M519.50 107.70 c0 -0.70 0.45 -3.15 1 -5.40 0.55 -2.20 1.10 -4.65 1.25 -5.40 0.35 -1.85 2.25 -2 2.25 -0.20 0 0.70 -0.20 1.40 -0.50 1.55 -0.25 0.15 -0.50 0.80 -0.50 1.40 0 2.20 -2.15 9.35 -2.85 9.35 -0.35 0 -0.65 -0.55 -0.65 -1.30z"/>
  <path d="M565.85 107 c-1.30 -0.80 -2.35 -1.60 -2.35 -1.70 0 -0.15 1.15 0.45 2.50 1.30 2.20 1.35 2.85 1.90 2.35 1.90 -0.10 0 -1.20 -0.65 -2.50 -1.50z"/>
  <path d="M559 101.65 c-4.65 -4.10 -5.20 -4.65 -4.65 -4.65 0.45 0.05 9.05 8 8.65 8 -0.15 0 -1.95 -1.50 -4 -3.35z"/>
  <path d="M549.45 92.65 c-1.95 -2.15 -4.75 -5.70 -6.20 -7.90 -2.80 -4.30 -6.40 -10.80 -6.10 -11.05 0.10 -0.10 0.80 1 1.55 2.40 2.50 4.60 7.80 12.25 11.35 16.35 1.95 2.25 3.40 4.05 3.30 4.05 -0.15 0 -1.90 -1.75 -3.90 -3.85z"/>
  <path d="M522 59.50 c0 -1.65 0.15 -2 1 -2 0.85 0 1 0.35 1 2 0 1.65 -0.15 2 -1 2 -0.85 0 -1 -0.35 -1 -2z"/>
  <path d="M529.75 55.25 c-1.05 -3.70 -0.70 -4.10 0.45 -0.45 0.50 1.55 0.75 2.90 0.65 3.05 -0.15 0.10 -0.65 -1.05 -1.10 -2.60z"/>
 </g>
 <g fill="#057238">
  <path d="M511.75 452.40 c-36.80 -2.95 -68.95 -15.60 -97.25 -38.30 -15.95 -12.85 -33.35 -34.80 -43.40 -54.95 -8.90 -17.70 -15.35 -39.55 -17.35 -58.60 -0.85 -7.90 -1 -28.50 -0.25 -37.05 1.75 -20.70 8.45 -42.95 18.60 -62 7.50 -14 12.65 -21.55 23.95 -35.05 15.55 -18.50 37.70 -35.25 65.70 -49.70 5.80 -2.95 12.70 -6.75 15.40 -8.45 10.55 -6.55 19.25 -15.35 25.65 -25.90 4.40 -7.25 9.80 -18.25 11.35 -23.15 2.65 -8.10 6.15 -22.75 7.65 -32 l0.90 -5.50 0.65 2.20 c0.80 2.80 0.85 4.75 0.75 41.75 -0.05 16.80 -0.30 31.20 -0.55 32 -0.25 0.85 -1 3.70 -1.60 6.30 -1.55 6.55 -3.35 10.95 -6.55 16.25 -1.50 2.50 -3.45 6.35 -4.25 8.60 -0.85 2.25 -2 4.70 -2.60 5.50 -2.85 3.65 -6.05 8.35 -6.05 8.85 0 0.30 -1.40 2.80 -3.05 5.55 -1.70 2.75 -4.10 6.70 -5.30 8.75 -1.25 2.05 -2.65 4.20 -3.10 4.75 -1.25 1.35 -13.45 19.05 -18.30 26.50 -2.15 3.30 -6.80 9.95 -10.30 14.75 -3.45 4.80 -7 9.90 -7.80 11.25 -0.80 1.40 -4.25 6.55 -7.65 11.50 -17.45 25.50 -23.05 46.55 -19.95 75 1.40 12.80 5.25 24.10 12.35 36.45 7.80 13.45 19.05 25.35 30.85 32.70 29.05 18 64.40 20.55 93.55 6.60 13.45 -6.40 23.20 -14.40 34.25 -28.05 7.35 -9 12.80 -18.75 16.45 -29.15 6.55 -18.90 6.65 -44.40 0.25 -63.60 -3.40 -10.30 -11.50 -24.10 -28.50 -48.70 -3.95 -5.70 -5.85 -8.65 -5.10 -8 0.55 0.50 7.20 10.05 13.60 19.50 14.75 21.80 19.80 31.65 22.90 44.75 2.65 11.05 2.80 12.15 3.15 22.25 0.35 10.65 0.35 11.70 -0.10 15.65 -0.15 1.60 -0.10 2.85 0.15 2.80 0.20 -0.05 0.50 0 0.65 0.05 1.20 0.45 2.40 0.30 3.15 -0.35 0.80 -0.80 1 -0.80 2.30 0 1.85 1.05 4.90 1.10 7 0.05 1.35 -0.70 1.95 -0.70 3.80 -0.20 1.15 0.35 2.60 0.45 3.20 0.25 0.80 -0.25 1.05 -0.10 1.10 0.60 0.15 2.35 -0.15 4.70 -1.05 7.90 -2.20 8.30 -2.40 12.20 -0.80 15.95 0.85 2.10 2.85 3.50 4.30 3.05 0.55 -0.15 2.25 -0.05 3.70 0.30 2.30 0.50 3.45 0.45 7.60 -0.30 4.20 -0.80 5.20 -0.85 7.65 -0.30 1.55 0.35 3.60 0.75 4.55 0.90 0.95 0.15 2.95 0.85 4.35 1.55 2.25 1.15 2.80 1.25 3.65 0.70 1.25 -0.80 3.35 -0.80 3.70 0.05 0.15 0.45 0.40 0.35 0.95 -0.25 0.50 -0.60 0.85 -0.70 1.20 -0.35 0.60 0.60 1 0.15 1.35 -1.60 0.15 -0.65 0.70 -2.45 1.20 -3.95 0.55 -1.50 1.45 -4.45 2.10 -6.50 0.60 -2.05 1.35 -4.40 1.60 -5.25 0.55 -1.80 1.20 -5.05 2.15 -10.70 0.80 -4.75 1.55 -6.25 1.05 -2.05 -1.70 13.90 -6.40 31.30 -11.85 44.10 -5.75 13.50 -12.40 25.20 -19.80 34.80 -2.30 2.95 -5.45 7.05 -7 9.10 -3.80 4.95 -16.05 17.25 -22.65 22.70 -9.85 8.20 -24.80 17.35 -38.50 23.60 -24.35 11.10 -53.35 16.25 -79.75 14.10z m-96.25 -256.65 c0 -0.50 -0.50 -0.75 -1.50 -0.75 -1.45 0 -1.90 0.45 -1.15 1.15 0.65 0.65 2.65 0.35 2.65 -0.40z m27.50 -1.40 c0.40 -0.60 2.35 -3.25 4.30 -5.85 1.95 -2.60 4.50 -6.15 5.75 -7.85 1.20 -1.75 4.85 -6.80 8.05 -11.25 3.20 -4.50 6.35 -8.90 7 -9.75 0.65 -0.90 2.95 -4.15 5.20 -7.25 6.30 -8.80 14.65 -21.25 20.35 -30.40 4.05 -6.45 7.40 -14.30 9.70 -22.75 0.70 -2.45 1.75 -5.75 2.40 -7.25 1.15 -2.70 2.55 -9.05 3.20 -14.60 0.35 -2.85 -0.05 -3.90 -0.70 -1.90 -0.15 0.55 -0.55 1 -0.80 1 -0.25 0 -0.40 0.15 -0.35 0.40 0.05 0.20 -0.25 0.90 -0.65 1.60 -0.45 0.70 -2 3.15 -3.45 5.50 -3.65 5.85 -5.35 8 -10.35 13.15 -4.25 4.40 -10.15 9.05 -15.90 12.40 -1.65 1 -8.85 4.90 -16 8.65 -7.15 3.80 -14.85 8.05 -17.05 9.45 -6.40 4.05 -10.85 7.15 -12.30 8.55 -0.75 0.70 -1.60 1.30 -1.90 1.30 -0.25 0 -0.50 0.25 -0.50 0.50 0 0.30 -0.35 0.50 -0.80 0.50 -0.40 0 -1.80 1 -3 2.20 -1.20 1.25 -3.55 3.05 -5.20 4.05 -1.60 1 -3.05 2.15 -3.20 2.65 -0.15 0.45 -2 2.10 -4.05 3.60 -2.05 1.50 -3.75 3 -3.75 3.30 0 0.65 -4.30 4.75 -4.60 4.40 -0.40 -0.35 -6.75 7 -9.65 11.25 -1 1.45 -2.25 3.05 -2.80 3.60 -0.50 0.50 -0.95 1.15 -0.95 1.40 0 0.30 -1.05 1.60 -2.35 2.95 -2.95 2.95 -4.15 4.60 -4.15 5.50 0 0.40 -0.50 1.15 -1.10 1.65 -0.55 0.55 -0.90 0.95 -0.65 0.95 0.20 0 0 0.55 -0.45 1.25 -0.95 1.45 -1.05 2.05 -0.15 1.40 0.30 -0.30 1.10 -0.65 1.70 -0.75 0.95 -0.25 1.05 -0.15 0.60 0.95 -0.80 2.15 -0.60 2.80 0.85 2.50 0.95 -0.15 1.75 0.20 3.10 1.45 2.50 2.30 3.85 2.60 5.35 1.20 0.70 -0.65 2.45 -1.55 4 -2.10 2.55 -0.85 2.90 -0.85 4.30 -0.15 1.10 0.60 2.15 0.70 3.80 0.45 2 -0.30 2.25 -0.25 2 0.50 -0.20 0.50 -0.05 0.80 0.40 0.80 0.40 0 0.75 -0.25 0.75 -0.55 0 -0.40 0.80 -0.45 2.50 -0.25 1.95 0.25 2.85 0.15 3.95 -0.50 1.70 -1 3.05 -0.65 3.05 0.75 0 1.50 0.80 1.70 3 0.60 1.80 -0.85 2.20 -0.90 3.65 -0.30 2.70 1.10 7.70 0.40 9.90 -1.35 1.15 -0.95 2.30 -1.40 3 -1.30 1.10 0.15 1.20 0.40 1.10 2.40 -0.05 1.30 0.15 2.35 0.50 2.60 0.90 0.55 2.50 -0.05 3.35 -1.25z"/>
  <path d="M515.30 340.45 c-7.50 -1.10 -15.45 -4.20 -20.95 -8.15 -10.90 -7.75 -18.70 -19.80 -20.85 -32.20 -0.85 -5 -0.75 -14.70 0.25 -19.60 1.95 -9.50 4.85 -15.70 13.75 -29.50 8.30 -12.85 13.20 -21.30 19.50 -33.75 4.55 -9 6.45 -13.35 8.65 -20.05 2.90 -8.75 6.35 -21.55 6.35 -23.55 0 -1.35 0.80 -1.55 1.20 -0.25 0.15 0.45 0.60 2.95 1.05 5.45 0.70 3.75 0.75 4.95 0.25 6.25 -0.40 1.20 -0.65 10.75 -0.85 33.15 -0.25 29.35 -0.35 31.60 -1.20 33 -3.10 5.20 -1.70 11.65 3.25 14.85 1.45 0.95 1.25 1 -0.80 0.15 -0.70 -0.25 -0.85 0.15 -1.15 3 -0.45 4 0.05 65.75 0.55 68.20 l0.35 1.65 4.05 -0.25 c6.75 -0.45 8.80 -0.95 14.05 -3.25 4.40 -1.90 11.10 -6.10 13.60 -8.55 2.10 -2 2.80 -2 0.85 0 -4 4.25 -11.60 8.95 -18.25 11.25 -7.10 2.50 -15.90 3.30 -23.65 2.15z"/>
  <path d="M560.60 322.40 c4.05 -5.35 4.10 -5.40 3.05 -3.45 -0.50 0.90 -1.85 2.70 -3.05 4 l-2.20 2.30 2.20 -2.85z"/>
  <path d="M691.55 297.20 c0.05 -1.35 0.25 -3.10 0.45 -3.95 0.25 -0.90 0.30 0.05 0.15 2.25 -0.35 4.30 -0.70 5.35 -0.60 1.70z"/>
  <path d="M691.70 268.25 c0 -2.75 0.05 -3.80 0.15 -2.35 0.10 1.45 0.10 3.70 0 5 -0.10 1.30 -0.15 0.10 -0.15 -2.65z"/>
  <path d="M534 267.15 c0.40 -0.15 1.20 -0.50 1.75 -0.75 1 -0.45 1 -0.45 0.05 0.30 -0.55 0.45 -1.35 0.80 -1.75 0.75 -0.70 0 -0.70 -0.05 -0.05 -0.30z"/>
  <path d="M690.80 260.75 c-0.15 -0.45 -0.25 -1.65 -0.25 -2.65 0.10 -1.65 0.10 -1.60 0.45 0.65 0.40 2.65 0.30 3.30 -0.20 2z"/>
  <path d="M685.30 233.70 c-0.20 -0.70 -0.25 -1.40 -0.15 -1.55 0.15 -0.10 0.40 0.40 0.55 1.15 0.20 0.70 0.25 1.40 0.15 1.55 -0.15 0.10 -0.40 -0.40 -0.55 -1.15z"/>
  <path d="M539.35 220.75 c-0.75 -1.50 -1.25 -2.75 -1.10 -2.75 0.35 0 2.85 5.05 2.65 5.30 -0.10 0.10 -0.80 -1.05 -1.55 -2.55z"/>
  <path d="M577.95 195.40 c-4.85 -6.65 -8.50 -12 -8 -11.70 0.40 0.30 5.45 7.15 10 13.70 2.20 3.15 0.60 1.55 -2 -2z"/>
  <path d="M560.05 170 c-1.15 -1.65 -2 -3 -1.90 -3 0.15 0 1 1.05 1.95 2.40 2.05 2.85 2.50 3.60 2.25 3.60 -0.10 0 -1.15 -1.35 -2.30 -3z"/>
 </g>
</svg>